<svg width="1168" height="177" viewBox="0 0 1168 177" fill="none" xmlns="http://www.w3.org/2000/svg">
<rect x="0.5" y="37.5" width="1167" height="139" rx="23.5" fill="#ECEBEB" stroke="#61B3FB"/>
<path d="M86.2461 23.4269L86.2461 23.4269C87.9284 16.8755 91.0011 10.8921 96.2055 6.77477L96.2055 6.77473C110.179 -4.283 131.489 -0.295765 140.114 15.3481C143.028 20.633 144.349 26.8151 143.693 32.8161C142.701 41.8913 137.204 50.3705 129.323 54.9812C126.084 56.8763 121.647 57.9648 117.087 58.9857C116.678 59.0773 116.268 59.1683 115.858 59.2594C111.737 60.1742 107.608 61.091 104.425 62.5766C98.9016 65.154 96.627 67.2752 92.2482 71.3586C91.8226 71.7556 91.377 72.1711 90.9067 72.6073C87.5879 62.724 85.0204 52.5393 84.5763 42.1706C84.3206 36.2001 84.666 29.5782 86.2461 23.4269Z" fill="#ECEBEB" stroke="#61B3FB"/>
<g clip-path="url(#clip0_552_2)">
<mask id="mask0_552_2" style="mask-type:luminance" maskUnits="userSpaceOnUse" x="989" y="61" width="35" height="45">
<path d="M1024 61H989V106H1024V61Z" fill="white"/>
</mask>
<g mask="url(#mask0_552_2)">
<path d="M1006.48 105.947C1006.14 103.34 1005.98 100.694 1005.43 98.1341C1004.59 94.2012 1002.86 90.5932 1000.04 87.7347C998.105 85.7649 995.414 84.9757 992.77 84.3058C991.651 84.0273 990.513 83.8482 989 83.5497C990.112 83.2181 990.875 82.9197 991.671 82.7671C999.309 81.3412 1003.06 77.4613 1005.14 69.9602C1005.95 67.0553 1006.68 64.1039 1006.59 61C1007.27 62.6315 1007.36 64.3427 1007.64 66.0273C1008.5 71.0678 1009.77 75.9558 1013.86 79.4775C1015.71 81.0693 1017.92 81.8187 1020.31 82.1503C1021.55 82.3228 1022.76 82.6212 1023.99 82.8666C1023.84 83.3043 1023.46 83.3043 1023.12 83.3839C1020.61 83.9609 1018.26 84.9823 1015.91 86.017C1013.41 87.1113 1012.13 89.3132 1010.78 91.4223C1008.53 94.9042 1007.53 98.7907 1007.3 102.923C1007.24 103.957 1006.99 104.985 1006.84 106.013C1006.72 105.993 1006.59 105.973 1006.47 105.96M1015.53 83.5298C1011.72 81.9845 1008.89 78.3832 1006.77 72.4407C1004.99 76.944 1003 81.2417 997.993 83.1916C1000.5 84.5181 1001.91 86.7067 1003.39 88.8357C1004.86 90.9381 1005.8 93.2992 1006.7 95.7001C1007.96 90.3677 1010.51 86.1231 1015.53 83.5298Z" fill="#61B3FB"/>
</g>
</g>
<g clip-path="url(#clip1_552_2)">
<mask id="mask1_552_2" style="mask-type:luminance" maskUnits="userSpaceOnUse" x="1022" y="91" width="45" height="58">
<path d="M1067 91H1022V149H1067V91Z" fill="white"/>
</mask>
<g mask="url(#mask1_552_2)">
<path d="M1044.47 148.932C1044.04 145.572 1043.83 142.161 1043.13 138.862C1042.05 133.793 1039.82 129.142 1036.19 125.458C1033.71 122.919 1030.25 121.902 1026.85 121.039C1025.41 120.68 1023.95 120.449 1022 120.064C1023.43 119.637 1024.41 119.252 1025.43 119.055C1035.25 117.218 1040.08 112.217 1042.75 102.549C1043.79 98.8046 1044.73 95.0006 1044.62 91C1045.49 93.1029 1045.6 95.3083 1045.96 97.4796C1047.07 103.976 1048.7 110.276 1053.97 114.815C1056.34 116.867 1059.18 117.833 1062.25 118.26C1063.84 118.483 1065.41 118.867 1066.99 119.184C1066.79 119.748 1066.31 119.748 1065.87 119.85C1062.64 120.594 1059.62 121.911 1056.6 123.244C1053.39 124.655 1051.74 127.493 1050 130.211C1047.11 134.699 1045.82 139.708 1045.53 145.034C1045.46 146.367 1045.13 147.692 1044.93 149.017C1044.78 148.991 1044.62 148.966 1044.47 148.949M1056.11 120.038C1051.21 118.047 1047.57 113.405 1044.85 105.746C1042.56 111.55 1040 117.089 1033.56 119.603C1036.79 121.312 1038.6 124.133 1040.5 126.877C1042.39 129.587 1043.6 132.63 1044.76 135.725C1046.38 128.852 1049.65 123.381 1056.11 120.038Z" fill="#61B3FB"/>
</g>
</g>
<defs>
<clipPath id="clip0_552_2">
<rect width="35" height="45" fill="white" transform="translate(989 61)"/>
</clipPath>
<clipPath id="clip1_552_2">
<rect width="45" height="58" fill="white" transform="translate(1022 91)"/>
</clipPath>
</defs>
</svg>
