<svg width="510" height="100" viewBox="0 0 510 100" fill="none" xmlns="http://www.w3.org/2000/svg">
<rect x="0.5" y="20.5" width="493" height="79" rx="39.5" fill="#0A76D9" stroke="#141E39"/>
<path d="M461.93 19.2398L461.93 19.2397C463.306 13.8774 465.819 8.98932 470.068 5.6279L470.068 5.62786C481.488 -3.40948 498.905 -0.149233 505.953 12.6336C508.334 16.9535 509.414 22.0063 508.878 26.9097C508.067 34.326 503.574 41.2565 497.134 45.0243C494.491 46.5706 490.865 47.4611 487.122 48.2992C486.786 48.3743 486.449 48.4491 486.112 48.5239C482.735 49.2737 479.337 50.0279 476.717 51.2511C472.173 53.3716 470.297 55.1206 466.705 58.4709C466.386 58.7677 466.055 59.077 465.707 59.4003C463.007 51.3381 460.924 43.037 460.563 34.5893C460.353 29.6972 460.636 24.2745 461.93 19.2398Z" fill="white" stroke="#141E39"/>
<path d="M492.547 30.9531C492.652 31.0576 492.735 31.1818 492.792 31.3186C492.848 31.4553 492.878 31.6019 492.878 31.75C492.878 31.8981 492.848 32.0447 492.792 32.1814C492.735 32.3182 492.652 32.4424 492.547 32.5469C492.335 32.7564 492.048 32.8739 491.75 32.8739C491.452 32.8739 491.165 32.7564 490.953 32.5469L485 26.5937L479.047 32.5469C478.835 32.7564 478.548 32.8739 478.25 32.8739C477.952 32.8739 477.665 32.7564 477.453 32.5469C477.348 32.4424 477.265 32.3182 477.208 32.1814C477.151 32.0447 477.122 31.8981 477.122 31.75C477.122 31.6019 477.151 31.4553 477.208 31.3186C477.265 31.1818 477.348 31.0576 477.453 30.9531L483.406 25L477.453 19.0469C477.242 18.8355 477.123 18.5489 477.123 18.25C477.123 18.102 477.152 17.9555 477.209 17.8187C477.265 17.682 477.348 17.5578 477.453 17.4531C477.558 17.3485 477.682 17.2655 477.819 17.2088C477.955 17.1522 478.102 17.123 478.25 17.123C478.549 17.123 478.835 17.2418 479.047 17.4531L485 23.4062L490.953 17.4531C491.164 17.2418 491.451 17.123 491.75 17.123C492.049 17.123 492.335 17.2418 492.547 17.4531C492.758 17.6645 492.877 17.9511 492.877 18.25C492.877 18.5489 492.758 18.8355 492.547 19.0469L486.594 25L492.547 30.9531Z" fill="#141E39"/>
</svg>
