<svg width="50" height="61" viewBox="0 0 50 61" fill="none" xmlns="http://www.w3.org/2000/svg">
<path d="M1.92952 19.2398L1.92953 19.2397C3.3065 13.8774 5.81922 8.98932 10.0681 5.6279L10.0681 5.62786C21.4883 -3.40948 38.9045 -0.149233 45.9527 12.6336C48.3343 16.9535 49.4137 22.0063 48.8776 26.9097C48.0669 34.326 43.5739 41.2565 37.134 45.0243C34.4908 46.5706 30.865 47.4611 27.1219 48.2992C26.7861 48.3743 26.4493 48.4491 26.1122 48.5239C22.7348 49.2737 19.3375 50.0279 16.7167 51.2511C12.1727 53.3716 10.2972 55.1206 6.70468 58.4709C6.38648 58.7677 6.0548 59.077 5.70661 59.4003C3.00693 51.3381 0.924339 43.037 0.562516 34.5893C0.35303 29.6972 0.636261 24.2745 1.92952 19.2398Z" fill="white" stroke="#141E39"/>
<path d="M32.5468 30.9531C32.6517 31.0576 32.7349 31.1818 32.7917 31.3186C32.8485 31.4553 32.8777 31.6019 32.8777 31.75C32.8777 31.8981 32.8485 32.0447 32.7917 32.1814C32.7349 32.3182 32.6517 32.4424 32.5468 32.5469C32.3345 32.7564 32.0482 32.8739 31.75 32.8739C31.4517 32.8739 31.1654 32.7564 30.9531 32.5469L25 26.5937L19.0468 32.5469C18.8345 32.7564 18.5482 32.8739 18.25 32.8739C17.9517 32.8739 17.6654 32.7564 17.4531 32.5469C17.3482 32.4424 17.265 32.3182 17.2082 32.1814C17.1514 32.0447 17.1222 31.8981 17.1222 31.75C17.1222 31.6019 17.1514 31.4553 17.2082 31.3186C17.265 31.1818 17.3482 31.0576 17.4531 30.9531L23.4062 25L17.4531 19.0469C17.2417 18.8355 17.123 18.5489 17.123 18.25C17.123 18.102 17.1522 17.9555 17.2088 17.8187C17.2654 17.682 17.3484 17.5578 17.4531 17.4531C17.5577 17.3485 17.682 17.2655 17.8187 17.2088C17.9554 17.1522 18.102 17.123 18.25 17.123C18.5488 17.123 18.8355 17.2418 19.0468 17.4531L25 23.4062L30.9531 17.4531C31.1644 17.2418 31.4511 17.123 31.75 17.123C32.0488 17.123 32.3355 17.2418 32.5468 17.4531C32.7582 17.6645 32.8769 17.9511 32.8769 18.25C32.8769 18.5489 32.7582 18.8355 32.5468 19.0469L26.5937 25L32.5468 30.9531Z" fill="#141E39"/>
</svg>
