<svg width="333" height="164" viewBox="0 0 333 164" fill="none" xmlns="http://www.w3.org/2000/svg">
<rect x="0.5" y="0.5" width="332" height="163" rx="15.5" fill="white" stroke="#141E39"/>
<path d="M0.5 16C0.5 7.43959 7.43959 0.5 16 0.5H317C325.56 0.5 332.5 7.43959 332.5 16V70.5H0.5V16Z" fill="#141E39" stroke="#141E39"/>
<path d="M68.66 41H78.92V38.36H71.9V27H68.66V41ZM88.1522 30.24V35.56C88.1522 37.54 87.1122 38.46 85.6722 38.46C84.2922 38.46 83.4922 37.66 83.4922 35.86V30.24H80.3722V36.32C80.3722 39.64 82.2722 41.16 84.9722 41.16C86.2922 41.16 87.4922 40.66 88.3122 39.72V41H91.2722V30.24H88.1522ZM95.7227 28.74C96.8827 28.74 97.6627 27.98 97.6627 26.94C97.6627 25.98 96.8827 25.26 95.7227 25.26C94.5627 25.26 93.7827 26.02 93.7827 27C93.7827 27.98 94.5627 28.74 95.7227 28.74ZM94.1627 41H97.2827V30.24H94.1627V41ZM103.378 38.6L108.858 32.12V30.24H99.5783V32.64H104.918L99.4383 39.12V41H109.038V38.6H103.378ZM115.378 30.08C113.658 30.08 111.918 30.54 110.738 31.38L111.858 33.56C112.638 32.94 113.818 32.56 114.958 32.56C116.638 32.56 117.438 33.34 117.438 34.68H114.958C111.678 34.68 110.338 36 110.338 37.9C110.338 39.76 111.838 41.16 114.358 41.16C115.938 41.16 117.058 40.64 117.638 39.66V41H120.558V34.86C120.558 31.6 118.658 30.08 115.378 30.08ZM115.138 39.06C114.038 39.06 113.378 38.54 113.378 37.76C113.378 37.04 113.838 36.5 115.298 36.5H117.438V37.6C117.078 38.58 116.178 39.06 115.138 39.06ZM145.045 41L145.005 27H142.345L137.185 35.7L131.945 27H129.265V41H132.305V32.78L136.405 39.52H137.865L141.985 32.6L142.005 41H145.045ZM158.687 35.66C158.687 32.2 156.247 30.08 153.087 30.08C149.807 30.08 147.347 32.4 147.347 35.62C147.347 38.82 149.767 41.16 153.487 41.16C155.427 41.16 156.927 40.56 157.927 39.42L156.267 37.62C155.527 38.32 154.707 38.66 153.567 38.66C151.927 38.66 150.787 37.84 150.487 36.5H158.627C158.647 36.24 158.687 35.9 158.687 35.66ZM153.107 32.44C154.507 32.44 155.527 33.32 155.747 34.68H150.447C150.667 33.3 151.687 32.44 153.107 32.44ZM168.604 26.16V31.38C167.824 30.5 166.704 30.08 165.384 30.08C162.344 30.08 160.004 32.24 160.004 35.62C160.004 39 162.344 41.16 165.384 41.16C166.824 41.16 167.964 40.7 168.744 39.76V41H171.724V26.16H168.604ZM165.924 38.6C164.364 38.6 163.164 37.48 163.164 35.62C163.164 33.76 164.364 32.64 165.924 32.64C167.464 32.64 168.664 33.76 168.664 35.62C168.664 37.48 167.464 38.6 165.924 38.6ZM185.152 35.66C185.152 32.2 182.712 30.08 179.552 30.08C176.272 30.08 173.812 32.4 173.812 35.62C173.812 38.82 176.232 41.16 179.952 41.16C181.892 41.16 183.392 40.56 184.392 39.42L182.732 37.62C181.992 38.32 181.172 38.66 180.032 38.66C178.392 38.66 177.252 37.84 176.952 36.5H185.092C185.112 36.24 185.152 35.9 185.152 35.66ZM179.572 32.44C180.972 32.44 181.992 33.32 182.212 34.68H176.912C177.132 33.3 178.152 32.44 179.572 32.44ZM188.789 28.74C189.949 28.74 190.729 27.98 190.729 26.94C190.729 25.98 189.949 25.26 188.789 25.26C187.629 25.26 186.849 26.02 186.849 27C186.849 27.98 187.629 28.74 188.789 28.74ZM187.229 41H190.349V30.24H187.229V41ZM196.225 31.66V30.24H193.245V41H196.365V35.92C196.365 33.86 197.505 32.92 199.225 32.92C199.465 32.92 199.665 32.94 199.925 32.96V30.08C198.265 30.08 196.985 30.62 196.225 31.66ZM206.802 41.16C210.222 41.16 212.702 38.86 212.702 35.62C212.702 32.38 210.222 30.08 206.802 30.08C203.382 30.08 200.882 32.38 200.882 35.62C200.882 38.86 203.382 41.16 206.802 41.16ZM206.802 38.6C205.242 38.6 204.042 37.48 204.042 35.62C204.042 33.76 205.242 32.64 206.802 32.64C208.362 32.64 209.542 33.76 209.542 35.62C209.542 37.48 208.362 38.6 206.802 38.6ZM218.408 41.16C221.628 41.16 223.488 39.74 223.488 37.74C223.488 33.5 216.988 35.28 216.988 33.44C216.988 32.88 217.588 32.44 218.988 32.44C219.968 32.44 221.028 32.64 222.088 33.24L223.128 31.02C222.108 30.42 220.468 30.08 218.988 30.08C215.848 30.08 214.008 31.52 214.008 33.56C214.008 37.86 220.508 36.06 220.508 37.82C220.508 38.42 219.968 38.8 218.528 38.8C217.208 38.8 215.748 38.38 214.788 37.76L213.748 40C214.748 40.66 216.588 41.16 218.408 41.16Z" fill="#61B3FB"/>
<circle cx="36" cy="36" r="20" fill="#61B3FB"/>
<path d="M30.66 44H40.92V41.36H33.9V30H30.66V44Z" fill="white"/>
<path d="M28.48 85.8L23.664 94.104L18.8 85.8H17.824V97H18.96V88.088L23.36 95.576H23.92L28.32 88.04V97H29.456V85.8H28.48ZM39.3133 88.584V93C39.3133 94.92 38.2093 96.056 36.4493 96.056C34.8493 96.056 33.9213 95.144 33.9213 93.352V88.584H32.7853V93.464C32.7853 95.88 34.1933 97.08 36.3373 97.08C37.6813 97.08 38.7693 96.488 39.3612 95.464V97H40.4493V88.584H39.3133ZM44.2069 86.744C44.6869 86.744 45.0389 86.376 45.0389 85.912C45.0389 85.48 44.6709 85.128 44.2069 85.128C43.7429 85.128 43.3749 85.496 43.3749 85.928C43.3749 86.376 43.7429 86.744 44.2069 86.744ZM43.6309 97H44.7669V88.584H43.6309V97ZM51.9598 95.672C51.6398 95.96 51.1758 96.104 50.7118 96.104C49.7678 96.104 49.2558 95.56 49.2558 94.568V89.544H51.8158V88.584H49.2558V86.744H48.1198V88.584H46.6158V89.544H48.1198V94.632C48.1198 96.184 48.9998 97.08 50.5838 97.08C51.2398 97.08 51.9118 96.888 52.3598 96.488L51.9598 95.672ZM57.5709 97.08C60.0349 97.08 61.8429 95.288 61.8429 92.792C61.8429 90.296 60.0349 88.52 57.5709 88.52C55.1069 88.52 53.2829 90.296 53.2829 92.792C53.2829 95.288 55.1069 97.08 57.5709 97.08ZM57.5709 96.072C55.7789 96.072 54.4349 94.76 54.4349 92.792C54.4349 90.824 55.7789 89.512 57.5709 89.512C59.3629 89.512 60.6909 90.824 60.6909 92.792C60.6909 94.76 59.3629 96.072 57.5709 96.072ZM71.8376 97.08C73.2616 97.08 74.4616 96.504 75.1336 95.416L74.2856 94.84C73.7096 95.688 72.8136 96.072 71.8376 96.072C69.9976 96.072 68.6536 94.776 68.6536 92.792C68.6536 90.824 69.9976 89.512 71.8376 89.512C72.8136 89.512 73.7096 89.912 74.2856 90.76L75.1336 90.184C74.4616 89.08 73.2616 88.52 71.8376 88.52C69.3256 88.52 67.5016 90.28 67.5016 92.792C67.5016 95.304 69.3256 97.08 71.8376 97.08ZM83.8133 88.584V93C83.8133 94.92 82.7093 96.056 80.9493 96.056C79.3493 96.056 78.4213 95.144 78.4213 93.352V88.584H77.2853V93.464C77.2853 95.88 78.6933 97.08 80.8373 97.08C82.1813 97.08 83.2693 96.488 83.8612 95.464V97H84.9493V88.584H83.8133ZM88.7069 86.744C89.1869 86.744 89.5389 86.376 89.5389 85.912C89.5389 85.48 89.1709 85.128 88.7069 85.128C88.2429 85.128 87.8749 85.496 87.8749 85.928C87.8749 86.376 88.2429 86.744 88.7069 86.744ZM88.1309 97H89.2669V88.584H88.1309V97ZM98.9718 85.128V90.184C98.2678 89.096 97.1158 88.52 95.7718 88.52C93.3718 88.52 91.5798 90.248 91.5798 92.792C91.5798 95.336 93.3718 97.08 95.7718 97.08C97.1638 97.08 98.3318 96.472 99.0198 95.336V97H100.108V85.128H98.9718ZM95.8678 96.072C94.0758 96.072 92.7318 94.76 92.7318 92.792C92.7318 90.824 94.0758 89.512 95.8678 89.512C97.6438 89.512 98.9878 90.824 98.9878 92.792C98.9878 94.76 97.6438 96.072 95.8678 96.072ZM106.216 88.52C104.888 88.52 103.64 88.936 102.792 89.656L103.304 90.504C103.992 89.896 105.016 89.512 106.104 89.512C107.672 89.512 108.488 90.296 108.488 91.736V92.248H105.816C103.4 92.248 102.568 93.336 102.568 94.632C102.568 96.088 103.736 97.08 105.64 97.08C107.032 97.08 108.024 96.552 108.536 95.688V97H109.624V91.784C109.624 89.608 108.392 88.52 106.216 88.52ZM105.816 96.184C104.472 96.184 103.688 95.576 103.688 94.6C103.688 93.736 104.216 93.096 105.848 93.096H108.488V94.472C108.04 95.576 107.096 96.184 105.816 96.184ZM119.284 85.128V90.184C118.58 89.096 117.428 88.52 116.084 88.52C113.684 88.52 111.892 90.248 111.892 92.792C111.892 95.336 113.684 97.08 116.084 97.08C117.476 97.08 118.644 96.472 119.332 95.336V97H120.42V85.128H119.284ZM116.18 96.072C114.388 96.072 113.044 94.76 113.044 92.792C113.044 90.824 114.388 89.512 116.18 89.512C117.956 89.512 119.3 90.824 119.3 92.792C119.3 94.76 117.956 96.072 116.18 96.072ZM127.024 97.08C129.488 97.08 131.296 95.288 131.296 92.792C131.296 90.296 129.488 88.52 127.024 88.52C124.56 88.52 122.736 90.296 122.736 92.792C122.736 95.288 124.56 97.08 127.024 97.08ZM127.024 96.072C125.232 96.072 123.888 94.76 123.888 92.792C123.888 90.824 125.232 89.512 127.024 89.512C128.816 89.512 130.144 90.824 130.144 92.792C130.144 94.76 128.816 96.072 127.024 96.072ZM135.871 97.08C138.063 97.08 139.343 96.136 139.343 94.68C139.343 91.448 133.887 93.16 133.887 90.888C133.887 90.088 134.559 89.496 136.079 89.496C136.943 89.496 137.823 89.704 138.559 90.216L139.055 89.304C138.351 88.824 137.167 88.52 136.079 88.52C133.935 88.52 132.751 89.544 132.751 90.92C132.751 94.248 138.207 92.52 138.207 94.712C138.207 95.544 137.551 96.088 135.951 96.088C134.767 96.088 133.631 95.672 132.959 95.144L132.447 96.04C133.135 96.632 134.479 97.08 135.871 97.08ZM144.387 88.52C143.059 88.52 141.811 88.936 140.963 89.656L141.475 90.504C142.163 89.896 143.187 89.512 144.275 89.512C145.843 89.512 146.659 90.296 146.659 91.736V92.248H143.987C141.571 92.248 140.739 93.336 140.739 94.632C140.739 96.088 141.907 97.08 143.811 97.08C145.203 97.08 146.195 96.552 146.707 95.688V97H147.795V91.784C147.795 89.608 146.563 88.52 144.387 88.52ZM143.987 96.184C142.643 96.184 141.859 95.576 141.859 94.6C141.859 93.736 142.387 93.096 144.019 93.096H146.659V94.472C146.211 95.576 145.267 96.184 143.987 96.184ZM162.412 92.792C162.412 90.264 160.7 88.52 158.332 88.52C155.964 88.52 154.22 90.296 154.22 92.792C154.22 95.288 156.012 97.08 158.636 97.08C159.964 97.08 161.132 96.6 161.884 95.704L161.244 94.968C160.604 95.704 159.692 96.072 158.668 96.072C156.828 96.072 155.484 94.904 155.356 93.144H162.396C162.396 93.016 162.412 92.888 162.412 92.792ZM158.332 89.496C159.98 89.496 161.18 90.648 161.324 92.296H155.356C155.5 90.648 156.7 89.496 158.332 89.496ZM171.856 88.52C170.528 88.52 169.28 88.936 168.432 89.656L168.944 90.504C169.632 89.896 170.656 89.512 171.744 89.512C173.312 89.512 174.128 90.296 174.128 91.736V92.248H171.456C169.04 92.248 168.208 93.336 168.208 94.632C168.208 96.088 169.376 97.08 171.28 97.08C172.672 97.08 173.664 96.552 174.176 95.688V97H175.264V91.784C175.264 89.608 174.032 88.52 171.856 88.52ZM171.456 96.184C170.112 96.184 169.328 95.576 169.328 94.6C169.328 93.736 169.856 93.096 171.488 93.096H174.128V94.472C173.68 95.576 172.736 96.184 171.456 96.184ZM182.382 95.672C182.062 95.96 181.598 96.104 181.134 96.104C180.19 96.104 179.678 95.56 179.678 94.568V89.544H182.238V88.584H179.678V86.744H178.542V88.584H177.038V89.544H178.542V94.632C178.542 96.184 179.422 97.08 181.006 97.08C181.662 97.08 182.334 96.888 182.782 96.488L182.382 95.672ZM191.897 92.792C191.897 90.264 190.185 88.52 187.817 88.52C185.449 88.52 183.705 90.296 183.705 92.792C183.705 95.288 185.497 97.08 188.121 97.08C189.449 97.08 190.617 96.6 191.369 95.704L190.729 94.968C190.089 95.704 189.177 96.072 188.153 96.072C186.313 96.072 184.969 94.904 184.841 93.144H191.881C191.881 93.016 191.897 92.888 191.897 92.792ZM187.817 89.496C189.465 89.496 190.665 90.648 190.809 92.296H184.841C184.985 90.648 186.185 89.496 187.817 89.496ZM198.497 88.52C197.041 88.52 195.905 89.112 195.297 90.136V88.584H194.209V97H195.345V92.584C195.345 90.664 196.481 89.544 198.289 89.544C199.889 89.544 200.817 90.456 200.817 92.232V97H201.953V92.12C201.953 89.704 200.545 88.52 198.497 88.52ZM209.069 95.672C208.749 95.96 208.285 96.104 207.821 96.104C206.877 96.104 206.365 95.56 206.365 94.568V89.544H208.925V88.584H206.365V86.744H205.229V88.584H203.725V89.544H205.229V94.632C205.229 96.184 206.109 97.08 207.693 97.08C208.349 97.08 209.021 96.888 209.469 96.488L209.069 95.672ZM214.481 88.52C213.153 88.52 211.905 88.936 211.057 89.656L211.569 90.504C212.257 89.896 213.281 89.512 214.369 89.512C215.937 89.512 216.753 90.296 216.753 91.736V92.248H214.081C211.665 92.248 210.833 93.336 210.833 94.632C210.833 96.088 212.001 97.08 213.905 97.08C215.297 97.08 216.289 96.552 216.801 95.688V97H217.889V91.784C217.889 89.608 216.657 88.52 214.481 88.52ZM214.081 96.184C212.737 96.184 211.953 95.576 211.953 94.6C211.953 93.736 212.481 93.096 214.113 93.096H216.753V94.472C216.305 95.576 215.361 96.184 214.081 96.184ZM228.106 88.52C226.778 88.52 225.53 88.936 224.682 89.656L225.194 90.504C225.882 89.896 226.906 89.512 227.994 89.512C229.562 89.512 230.378 90.296 230.378 91.736V92.248H227.706C225.29 92.248 224.458 93.336 224.458 94.632C224.458 96.088 225.626 97.08 227.53 97.08C228.922 97.08 229.914 96.552 230.426 95.688V97H231.514V91.784C231.514 89.608 230.282 88.52 228.106 88.52ZM227.706 96.184C226.362 96.184 225.578 95.576 225.578 94.6C225.578 93.736 226.106 93.096 227.738 93.096H230.378V94.472C229.93 95.576 228.986 96.184 227.706 96.184ZM242.819 95.672C242.499 95.96 242.035 96.104 241.571 96.104C240.627 96.104 240.115 95.56 240.115 94.568V89.544H242.675V88.584H240.115V86.744H238.979V88.584H237.475V89.544H238.979V94.632C238.979 96.184 239.859 97.08 241.443 97.08C242.099 97.08 242.771 96.888 243.219 96.488L242.819 95.672ZM248.43 97.08C250.894 97.08 252.702 95.288 252.702 92.792C252.702 90.296 250.894 88.52 248.43 88.52C245.966 88.52 244.142 90.296 244.142 92.792C244.142 95.288 245.966 97.08 248.43 97.08ZM248.43 96.072C246.638 96.072 245.294 94.76 245.294 92.792C245.294 90.824 246.638 89.512 248.43 89.512C250.222 89.512 251.55 90.824 251.55 92.792C251.55 94.76 250.222 96.072 248.43 96.072ZM261.566 85.128V90.184C260.862 89.096 259.71 88.52 258.366 88.52C255.966 88.52 254.174 90.248 254.174 92.792C254.174 95.336 255.966 97.08 258.366 97.08C259.758 97.08 260.926 96.472 261.614 95.336V97H262.702V85.128H261.566ZM258.462 96.072C256.67 96.072 255.326 94.76 255.326 92.792C255.326 90.824 256.67 89.512 258.462 89.512C260.238 89.512 261.582 90.824 261.582 92.792C261.582 94.76 260.238 96.072 258.462 96.072ZM269.305 97.08C271.769 97.08 273.577 95.288 273.577 92.792C273.577 90.296 271.769 88.52 269.305 88.52C266.841 88.52 265.017 90.296 265.017 92.792C265.017 95.288 266.841 97.08 269.305 97.08ZM269.305 96.072C267.513 96.072 266.169 94.76 266.169 92.792C266.169 90.824 267.513 89.512 269.305 89.512C271.097 89.512 272.425 90.824 272.425 92.792C272.425 94.76 271.097 96.072 269.305 96.072ZM278.153 97.08C280.345 97.08 281.625 96.136 281.625 94.68C281.625 91.448 276.169 93.16 276.169 90.888C276.169 90.088 276.841 89.496 278.361 89.496C279.225 89.496 280.105 89.704 280.841 90.216L281.337 89.304C280.633 88.824 279.449 88.52 278.361 88.52C276.217 88.52 275.033 89.544 275.033 90.92C275.033 94.248 280.489 92.52 280.489 94.712C280.489 95.544 279.833 96.088 278.233 96.088C277.049 96.088 275.913 95.672 275.241 95.144L274.729 96.04C275.417 96.632 276.761 97.08 278.153 97.08ZM291.352 97.08C293.816 97.08 295.624 95.288 295.624 92.792C295.624 90.296 293.816 88.52 291.352 88.52C288.888 88.52 287.064 90.296 287.064 92.792C287.064 95.288 288.888 97.08 291.352 97.08ZM291.352 96.072C289.56 96.072 288.216 94.76 288.216 92.792C288.216 90.824 289.56 89.512 291.352 89.512C293.144 89.512 294.472 90.824 294.472 92.792C294.472 94.76 293.144 96.072 291.352 96.072ZM300.199 97.08C302.391 97.08 303.671 96.136 303.671 94.68C303.671 91.448 298.215 93.16 298.215 90.888C298.215 90.088 298.887 89.496 300.407 89.496C301.271 89.496 302.151 89.704 302.887 90.216L303.383 89.304C302.679 88.824 301.495 88.52 300.407 88.52C298.263 88.52 297.079 89.544 297.079 90.92C297.079 94.248 302.535 92.52 302.535 94.712C302.535 95.544 301.879 96.088 300.279 96.088C299.095 96.088 297.959 95.672 297.287 95.144L296.775 96.04C297.463 96.632 298.807 97.08 300.199 97.08ZM24.128 105.128V110.184C23.424 109.096 22.272 108.52 20.928 108.52C18.528 108.52 16.736 110.248 16.736 112.792C16.736 115.336 18.528 117.08 20.928 117.08C22.32 117.08 23.488 116.472 24.176 115.336V117H25.264V105.128H24.128ZM21.024 116.072C19.232 116.072 17.888 114.76 17.888 112.792C17.888 110.824 19.232 109.512 21.024 109.512C22.8 109.512 24.144 110.824 24.144 112.792C24.144 114.76 22.8 116.072 21.024 116.072ZM35.7718 112.792C35.7718 110.264 34.0598 108.52 31.6918 108.52C29.3238 108.52 27.5798 110.296 27.5798 112.792C27.5798 115.288 29.3718 117.08 31.9958 117.08C33.3238 117.08 34.4918 116.6 35.2438 115.704L34.6038 114.968C33.9638 115.704 33.0518 116.072 32.0278 116.072C30.1878 116.072 28.8438 114.904 28.7158 113.144H35.7558C35.7558 113.016 35.7718 112.888 35.7718 112.792ZM31.6918 109.496C33.3398 109.496 34.5398 110.648 34.6838 112.296H28.7158C28.8598 110.648 30.0598 109.496 31.6918 109.496ZM42.116 115.672C41.796 115.96 41.332 116.104 40.868 116.104C39.924 116.104 39.412 115.56 39.412 114.568V109.544H41.972V108.584H39.412V106.744H38.276V108.584H36.772V109.544H38.276V114.632C38.276 116.184 39.156 117.08 40.74 117.08C41.396 117.08 42.068 116.888 42.516 116.488L42.116 115.672ZM47.528 108.52C46.2 108.52 44.952 108.936 44.104 109.656L44.616 110.504C45.304 109.896 46.328 109.512 47.416 109.512C48.984 109.512 49.8 110.296 49.8 111.736V112.248H47.128C44.712 112.248 43.88 113.336 43.88 114.632C43.88 116.088 45.048 117.08 46.952 117.08C48.344 117.08 49.336 116.552 49.848 115.688V117H50.936V111.784C50.936 109.608 49.704 108.52 47.528 108.52ZM47.128 116.184C45.784 116.184 45 115.576 45 114.6C45 113.736 45.528 113.096 47.16 113.096H49.8V114.472C49.352 115.576 48.408 116.184 47.128 116.184ZM54.0215 117H55.1575V105.128H54.0215V117ZM62.6064 108.52C61.1824 108.52 60.0784 109.08 59.4544 110.056V105.128H58.3184V117H59.4544V112.584C59.4544 110.664 60.5904 109.544 62.3984 109.544C63.9984 109.544 64.9264 110.456 64.9264 112.232V117H66.0624V112.12C66.0624 109.704 64.6544 108.52 62.6064 108.52ZM76.5218 112.792C76.5218 110.264 74.8098 108.52 72.4418 108.52C70.0738 108.52 68.3298 110.296 68.3298 112.792C68.3298 115.288 70.1218 117.08 72.7458 117.08C74.0738 117.08 75.2418 116.6 75.9938 115.704L75.3538 114.968C74.7138 115.704 73.8018 116.072 72.7778 116.072C70.9378 116.072 69.5938 114.904 69.4658 113.144H76.5058C76.5058 113.016 76.5218 112.888 76.5218 112.792ZM72.4418 109.496C74.0898 109.496 75.2898 110.648 75.4338 112.296H69.4658C69.6098 110.648 70.8098 109.496 72.4418 109.496ZM81.09 117.08C83.282 117.08 84.562 116.136 84.562 114.68C84.562 111.448 79.106 113.16 79.106 110.888C79.106 110.088 79.778 109.496 81.298 109.496C82.162 109.496 83.042 109.704 83.778 110.216L84.274 109.304C83.57 108.824 82.386 108.52 81.298 108.52C79.154 108.52 77.97 109.544 77.97 110.92C77.97 114.248 83.426 112.52 83.426 114.712C83.426 115.544 82.77 116.088 81.17 116.088C79.986 116.088 78.85 115.672 78.178 115.144L77.666 116.04C78.354 116.632 79.698 117.08 81.09 117.08ZM86.7741 117.08C87.2381 117.08 87.6381 116.696 87.6381 116.2C87.6381 115.704 87.2381 115.336 86.7741 115.336C86.3101 115.336 85.9261 115.704 85.9261 116.2C85.9261 116.696 86.3101 117.08 86.7741 117.08Z" fill="#141E39"/>
<path d="M253.108 138.6V139.368H255.088V147H255.952V138.6H253.108ZM257.444 138.6V139.368H259.424V147H260.288V138.6H257.444ZM261.372 148.2H262.152L266.112 136.896H265.332L261.372 148.2ZM269.429 147.072C271.373 147.072 272.789 145.476 272.789 142.8C272.789 140.124 271.373 138.528 269.429 138.528C267.485 138.528 266.081 140.124 266.081 142.8C266.081 145.476 267.485 147.072 269.429 147.072ZM269.429 146.28C267.965 146.28 266.957 145.044 266.957 142.8C266.957 140.556 267.965 139.32 269.429 139.32C270.893 139.32 271.901 140.556 271.901 142.8C271.901 145.044 270.893 146.28 269.429 146.28ZM275.119 146.232L277.975 143.424C279.103 142.32 279.355 141.6 279.355 140.796C279.355 139.392 278.275 138.528 276.571 138.528C275.287 138.528 274.243 138.96 273.595 139.728L274.207 140.256C274.759 139.62 275.515 139.32 276.499 139.32C277.783 139.32 278.467 139.92 278.467 140.892C278.467 141.468 278.287 142.032 277.339 142.968L273.847 146.388V147H279.739V146.232H275.119ZM280.016 148.2H280.796L284.756 136.896H283.976L280.016 148.2ZM286.076 146.232L288.932 143.424C290.06 142.32 290.312 141.6 290.312 140.796C290.312 139.392 289.232 138.528 287.528 138.528C286.244 138.528 285.2 138.96 284.552 139.728L285.164 140.256C285.716 139.62 286.472 139.32 287.456 139.32C288.74 139.32 289.424 139.92 289.424 140.892C289.424 141.468 289.244 142.032 288.296 142.968L284.804 146.388V147H290.696V146.232H286.076ZM295.081 147.072C297.025 147.072 298.441 145.476 298.441 142.8C298.441 140.124 297.025 138.528 295.081 138.528C293.137 138.528 291.733 140.124 291.733 142.8C291.733 145.476 293.137 147.072 295.081 147.072ZM295.081 146.28C293.617 146.28 292.609 145.044 292.609 142.8C292.609 140.556 293.617 139.32 295.081 139.32C296.545 139.32 297.553 140.556 297.553 142.8C297.553 145.044 296.545 146.28 295.081 146.28ZM300.771 146.232L303.627 143.424C304.755 142.32 305.007 141.6 305.007 140.796C305.007 139.392 303.927 138.528 302.223 138.528C300.939 138.528 299.895 138.96 299.247 139.728L299.859 140.256C300.411 139.62 301.167 139.32 302.151 139.32C303.435 139.32 304.119 139.92 304.119 140.892C304.119 141.468 303.939 142.032 302.991 142.968L299.499 146.388V147H305.391V146.232H300.771ZM309.332 142.2L311.708 139.212V138.6H306.308V139.368H310.604L308.276 142.284V142.92H308.876C310.436 142.92 311.144 143.58 311.144 144.588C311.144 145.632 310.376 146.28 308.984 146.28C307.892 146.28 306.92 145.872 306.38 145.308L305.96 145.992C306.608 146.652 307.772 147.072 308.984 147.072C311.012 147.072 312.032 145.992 312.032 144.588C312.032 143.244 311.132 142.296 309.332 142.2Z" fill="#141E39"/>
<rect x="231" y="15" width="91" height="21" rx="10.5" fill="white"/>
<path d="M240.883 30.6667L241.967 25.9833L238.333 22.8333L243.133 22.4167L245 18L246.867 22.4167L251.667 22.8333L248.033 25.9833L249.117 30.6667L245 28.1833L240.883 30.6667Z" fill="#61B3FB"/>
<path d="M256.883 30.6667L257.967 25.9833L254.333 22.8333L259.133 22.4167L261 18L262.867 22.4167L267.667 22.8333L264.033 25.9833L265.117 30.6667L261 28.1833L256.883 30.6667Z" fill="#61B3FB"/>
<path d="M272.883 30.6667L273.967 25.9833L270.333 22.8333L275.133 22.4167L277 18L278.867 22.4167L283.667 22.8333L280.033 25.9833L281.117 30.6667L277 28.1833L272.883 30.6667Z" fill="#61B3FB"/>
<path d="M288.883 30.6667L289.967 25.9833L286.333 22.8333L291.133 22.4167L293 18L294.867 22.4167L299.667 22.8333L296.033 25.9833L297.117 30.6667L293 28.1833L288.883 30.6667Z" fill="#61B3FB"/>
<path d="M304.883 30.6667L305.967 25.9833L302.333 22.8333L307.133 22.4167L309 18L310.867 22.4167L315.667 22.8333L312.033 25.9833L313.117 30.6667L309 28.1833L304.883 30.6667Z" fill="#61B3FB"/>
</svg>
