<svg width="333" height="164" viewBox="0 0 333 164" fill="none" xmlns="http://www.w3.org/2000/svg">
<rect x="0.5" y="0.5" width="332" height="163" rx="15.5" fill="white" stroke="#141E39"/>
<path d="M0.5 16C0.5 7.43959 7.43959 0.5 16 0.5H317C325.56 0.5 332.5 7.43959 332.5 16V68.5H0.5V16Z" fill="#141E39" stroke="#141E39"/>
<path d="M71.66 42V28H78.02C79.54 28 80.88 28.2933 82.04 28.88C83.2 29.4533 84.1067 30.26 84.76 31.3C85.4133 32.34 85.74 33.5733 85.74 35C85.74 36.4133 85.4133 37.6467 84.76 38.7C84.1067 39.74 83.2 40.5533 82.04 41.14C80.88 41.7133 79.54 42 78.02 42H71.66ZM74.9 39.34H77.86C78.7933 39.34 79.6 39.1667 80.28 38.82C80.9733 38.46 81.5067 37.9533 81.88 37.3C82.2667 36.6467 82.46 35.88 82.46 35C82.46 34.1067 82.2667 33.34 81.88 32.7C81.5067 32.0467 80.9733 31.5467 80.28 31.2C79.6 30.84 78.7933 30.66 77.86 30.66H74.9V39.34ZM94.5634 42V39.9L94.3634 39.44V35.68C94.3634 35.0133 94.1568 34.4933 93.7434 34.12C93.3434 33.7467 92.7234 33.56 91.8834 33.56C91.3101 33.56 90.7434 33.6533 90.1834 33.84C89.6368 34.0133 89.1701 34.2533 88.7834 34.56L87.6634 32.38C88.2501 31.9667 88.9568 31.6467 89.7834 31.42C90.6101 31.1933 91.4501 31.08 92.3034 31.08C93.9434 31.08 95.2168 31.4667 96.1234 32.24C97.0301 33.0133 97.4834 34.22 97.4834 35.86V42H94.5634ZM91.2834 42.16C90.4434 42.16 89.7234 42.02 89.1234 41.74C88.5234 41.4467 88.0634 41.0533 87.7434 40.56C87.4234 40.0667 87.2634 39.5133 87.2634 38.9C87.2634 38.26 87.4168 37.7 87.7234 37.22C88.0434 36.74 88.5434 36.3667 89.2234 36.1C89.9034 35.82 90.7901 35.68 91.8834 35.68H94.7434V37.5H92.2234C91.4901 37.5 90.9834 37.62 90.7034 37.86C90.4368 38.1 90.3034 38.4 90.3034 38.76C90.3034 39.16 90.4568 39.48 90.7634 39.72C91.0834 39.9467 91.5168 40.06 92.0634 40.06C92.5834 40.06 93.0501 39.94 93.4634 39.7C93.8768 39.4467 94.1768 39.08 94.3634 38.6L94.8434 40.04C94.6168 40.7333 94.2034 41.26 93.6034 41.62C93.0034 41.98 92.2301 42.16 91.2834 42.16ZM106.847 31.08C107.701 31.08 108.461 31.2533 109.127 31.6C109.807 31.9333 110.341 32.4533 110.727 33.16C111.114 33.8533 111.307 34.7467 111.307 35.84V42H108.187V36.32C108.187 35.4533 107.994 34.8133 107.607 34.4C107.234 33.9867 106.701 33.78 106.007 33.78C105.514 33.78 105.067 33.8867 104.667 34.1C104.281 34.3 103.974 34.6133 103.747 35.04C103.534 35.4667 103.427 36.0133 103.427 36.68V42H100.307V31.24H103.287V34.22L102.727 33.32C103.114 32.6 103.667 32.0467 104.387 31.66C105.107 31.2733 105.927 31.08 106.847 31.08ZM114.135 42V31.24H117.255V42H114.135ZM115.695 29.74C115.122 29.74 114.655 29.5733 114.295 29.24C113.935 28.9067 113.755 28.4933 113.755 28C113.755 27.5067 113.935 27.0933 114.295 26.76C114.655 26.4267 115.122 26.26 115.695 26.26C116.269 26.26 116.735 26.42 117.095 26.74C117.455 27.0467 117.635 27.4467 117.635 27.94C117.635 28.46 117.455 28.8933 117.095 29.24C116.749 29.5733 116.282 29.74 115.695 29.74ZM125.491 42.16C124.264 42.16 123.184 41.92 122.251 41.44C121.331 40.96 120.618 40.3067 120.111 39.48C119.604 38.64 119.351 37.6867 119.351 36.62C119.351 35.54 119.598 34.5867 120.091 33.76C120.598 32.92 121.284 32.2667 122.151 31.8C123.018 31.32 123.998 31.08 125.091 31.08C126.144 31.08 127.091 31.3067 127.931 31.76C128.784 32.2 129.458 32.84 129.951 33.68C130.444 34.5067 130.691 35.5 130.691 36.66C130.691 36.78 130.684 36.92 130.671 37.08C130.658 37.2267 130.644 37.3667 130.631 37.5H121.891V35.68H128.991L127.791 36.22C127.791 35.66 127.678 35.1733 127.451 34.76C127.224 34.3467 126.911 34.0267 126.511 33.8C126.111 33.56 125.644 33.44 125.111 33.44C124.578 33.44 124.104 33.56 123.691 33.8C123.291 34.0267 122.978 34.3533 122.751 34.78C122.524 35.1933 122.411 35.6867 122.411 36.26V36.74C122.411 37.3267 122.538 37.8467 122.791 38.3C123.058 38.74 123.424 39.08 123.891 39.32C124.371 39.5467 124.931 39.66 125.571 39.66C126.144 39.66 126.644 39.5733 127.071 39.4C127.511 39.2267 127.911 38.9667 128.271 38.62L129.931 40.42C129.438 40.98 128.818 41.4133 128.071 41.72C127.324 42.0133 126.464 42.16 125.491 42.16ZM132.768 42V27.16H135.888V42H132.768ZM144.124 42.16C142.897 42.16 141.817 41.92 140.884 41.44C139.964 40.96 139.25 40.3067 138.744 39.48C138.237 38.64 137.984 37.6867 137.984 36.62C137.984 35.54 138.23 34.5867 138.724 33.76C139.23 32.92 139.917 32.2667 140.784 31.8C141.65 31.32 142.63 31.08 143.724 31.08C144.777 31.08 145.724 31.3067 146.564 31.76C147.417 32.2 148.09 32.84 148.584 33.68C149.077 34.5067 149.324 35.5 149.324 36.66C149.324 36.78 149.317 36.92 149.304 37.08C149.29 37.2267 149.277 37.3667 149.264 37.5H140.524V35.68H147.624L146.424 36.22C146.424 35.66 146.31 35.1733 146.084 34.76C145.857 34.3467 145.544 34.0267 145.144 33.8C144.744 33.56 144.277 33.44 143.744 33.44C143.21 33.44 142.737 33.56 142.324 33.8C141.924 34.0267 141.61 34.3533 141.384 34.78C141.157 35.1933 141.044 35.6867 141.044 36.26V36.74C141.044 37.3267 141.17 37.8467 141.424 38.3C141.69 38.74 142.057 39.08 142.524 39.32C143.004 39.5467 143.564 39.66 144.204 39.66C144.777 39.66 145.277 39.5733 145.704 39.4C146.144 39.2267 146.544 38.9667 146.904 38.62L148.564 40.42C148.07 40.98 147.45 41.4133 146.704 41.72C145.957 42.0133 145.097 42.16 144.124 42.16ZM157.285 42V28H163.645C165.165 28 166.505 28.2933 167.665 28.88C168.825 29.4533 169.732 30.26 170.385 31.3C171.038 32.34 171.365 33.5733 171.365 35C171.365 36.4133 171.038 37.6467 170.385 38.7C169.732 39.74 168.825 40.5533 167.665 41.14C166.505 41.7133 165.165 42 163.645 42H157.285ZM160.525 39.34H163.485C164.418 39.34 165.225 39.1667 165.905 38.82C166.598 38.46 167.132 37.9533 167.505 37.3C167.892 36.6467 168.085 35.88 168.085 35C168.085 34.1067 167.892 33.34 167.505 32.7C167.132 32.0467 166.598 31.5467 165.905 31.2C165.225 30.84 164.418 30.66 163.485 30.66H160.525V39.34ZM173.588 42V31.24H176.708V42H173.588ZM175.148 29.74C174.575 29.74 174.108 29.5733 173.748 29.24C173.388 28.9067 173.208 28.4933 173.208 28C173.208 27.5067 173.388 27.0933 173.748 26.76C174.108 26.4267 174.575 26.26 175.148 26.26C175.722 26.26 176.188 26.42 176.548 26.74C176.908 27.0467 177.088 27.4467 177.088 27.94C177.088 28.46 176.908 28.8933 176.548 29.24C176.202 29.5733 175.735 29.74 175.148 29.74ZM186.204 42V39.9L186.004 39.44V35.68C186.004 35.0133 185.797 34.4933 185.384 34.12C184.984 33.7467 184.364 33.56 183.524 33.56C182.951 33.56 182.384 33.6533 181.824 33.84C181.277 34.0133 180.811 34.2533 180.424 34.56L179.304 32.38C179.891 31.9667 180.597 31.6467 181.424 31.42C182.251 31.1933 183.091 31.08 183.944 31.08C185.584 31.08 186.857 31.4667 187.764 32.24C188.671 33.0133 189.124 34.22 189.124 35.86V42H186.204ZM182.924 42.16C182.084 42.16 181.364 42.02 180.764 41.74C180.164 41.4467 179.704 41.0533 179.384 40.56C179.064 40.0667 178.904 39.5133 178.904 38.9C178.904 38.26 179.057 37.7 179.364 37.22C179.684 36.74 180.184 36.3667 180.864 36.1C181.544 35.82 182.431 35.68 183.524 35.68H186.384V37.5H183.864C183.131 37.5 182.624 37.62 182.344 37.86C182.077 38.1 181.944 38.4 181.944 38.76C181.944 39.16 182.097 39.48 182.404 39.72C182.724 39.9467 183.157 40.06 183.704 40.06C184.224 40.06 184.691 39.94 185.104 39.7C185.517 39.4467 185.817 39.08 186.004 38.6L186.484 40.04C186.257 40.7333 185.844 41.26 185.244 41.62C184.644 41.98 183.871 42.16 182.924 42.16ZM195.568 42.16C194.648 42.16 193.761 42.0533 192.908 41.84C192.068 41.6133 191.401 41.3333 190.908 41L191.948 38.76C192.441 39.0667 193.021 39.32 193.688 39.52C194.368 39.7067 195.034 39.8 195.688 39.8C196.408 39.8 196.914 39.7133 197.208 39.54C197.514 39.3667 197.668 39.1267 197.668 38.82C197.668 38.5667 197.548 38.38 197.308 38.26C197.081 38.1267 196.774 38.0267 196.388 37.96C196.001 37.8933 195.574 37.8267 195.108 37.76C194.654 37.6933 194.194 37.6067 193.728 37.5C193.261 37.38 192.834 37.2067 192.448 36.98C192.061 36.7533 191.748 36.4467 191.508 36.06C191.281 35.6733 191.168 35.1733 191.168 34.56C191.168 33.88 191.361 33.28 191.748 32.76C192.148 32.24 192.721 31.8333 193.468 31.54C194.214 31.2333 195.108 31.08 196.148 31.08C196.881 31.08 197.628 31.16 198.388 31.32C199.148 31.48 199.781 31.7133 200.288 32.02L199.248 34.24C198.728 33.9333 198.201 33.7267 197.668 33.62C197.148 33.5 196.641 33.44 196.148 33.44C195.454 33.44 194.948 33.5333 194.628 33.72C194.308 33.9067 194.148 34.1467 194.148 34.44C194.148 34.7067 194.261 34.9067 194.488 35.04C194.728 35.1733 195.041 35.28 195.428 35.36C195.814 35.44 196.234 35.5133 196.688 35.58C197.154 35.6333 197.621 35.72 198.088 35.84C198.554 35.96 198.974 36.1333 199.348 36.36C199.734 36.5733 200.048 36.8733 200.288 37.26C200.528 37.6333 200.648 38.1267 200.648 38.74C200.648 39.4067 200.448 40 200.048 40.52C199.648 41.0267 199.068 41.4267 198.308 41.72C197.561 42.0133 196.648 42.16 195.568 42.16Z" fill="#61B3FB"/>
<circle cx="36" cy="36" r="20" fill="#61B3FB"/>
<path d="M29.66 44H36.02C40.6 44 43.74 41.24 43.74 37C43.74 32.76 40.6 30 36.02 30H29.66V44ZM32.9 41.34V32.66H35.86C38.64 32.66 40.46 34.32 40.46 37C40.46 39.68 38.64 41.34 35.86 41.34H32.9Z" fill="white"/>
<path d="M18.88 90.808H24.8V91.816H18.88V90.808ZM19.008 95.976H25.744V97H17.824V85.8H25.504V86.824H19.008V95.976ZM26.7728 97L30.3248 92.392L30.3088 92.952L26.9328 88.6H28.2128L30.9808 92.2L30.5008 92.184L33.2688 88.6H34.5168L31.1088 93L31.1248 92.392L34.7088 97H33.4128L30.4848 93.16L30.9328 93.224L28.0528 97H26.7728ZM39.7908 97.08C38.9588 97.08 38.2121 96.8987 37.5508 96.536C36.9001 96.1627 36.3881 95.656 36.0148 95.016C35.6414 94.3653 35.4548 93.624 35.4548 92.792C35.4548 91.9493 35.6414 91.208 36.0148 90.568C36.3881 89.928 36.9001 89.4267 37.5508 89.064C38.2121 88.7013 38.9588 88.52 39.7908 88.52C40.5054 88.52 41.1508 88.6587 41.7268 88.936C42.3028 89.2133 42.7561 89.6293 43.0868 90.184L42.2388 90.76C41.9508 90.3333 41.5934 90.0187 41.1668 89.816C40.7401 89.6133 40.2761 89.512 39.7748 89.512C39.1774 89.512 38.6388 89.6507 38.1588 89.928C37.6788 90.1947 37.3001 90.5733 37.0228 91.064C36.7454 91.5547 36.6068 92.1307 36.6068 92.792C36.6068 93.4533 36.7454 94.0293 37.0228 94.52C37.3001 95.0107 37.6788 95.3947 38.1588 95.672C38.6388 95.9387 39.1774 96.072 39.7748 96.072C40.2761 96.072 40.7401 95.9707 41.1668 95.768C41.5934 95.5653 41.9508 95.256 42.2388 94.84L43.0868 95.416C42.7561 95.96 42.3028 96.376 41.7268 96.664C41.1508 96.9413 40.5054 97.08 39.7908 97.08ZM48.7458 97.08C47.8711 97.08 47.1031 96.8987 46.4418 96.536C45.7804 96.1627 45.2631 95.656 44.8898 95.016C44.5164 94.3653 44.3298 93.624 44.3298 92.792C44.3298 91.96 44.5058 91.224 44.8578 90.584C45.2204 89.944 45.7111 89.4427 46.3298 89.08C46.9591 88.7067 47.6631 88.52 48.4418 88.52C49.2311 88.52 49.9298 88.7013 50.5378 89.064C51.1564 89.416 51.6418 89.9173 51.9938 90.568C52.3458 91.208 52.5218 91.9493 52.5218 92.792C52.5218 92.8453 52.5164 92.904 52.5058 92.968C52.5058 93.0213 52.5058 93.08 52.5058 93.144H45.1938V92.296H51.8978L51.4498 92.632C51.4498 92.024 51.3164 91.4853 51.0498 91.016C50.7938 90.536 50.4418 90.1627 49.9938 89.896C49.5458 89.6293 49.0284 89.496 48.4418 89.496C47.8658 89.496 47.3484 89.6293 46.8898 89.896C46.4311 90.1627 46.0738 90.536 45.8178 91.016C45.5618 91.496 45.4338 92.0453 45.4338 92.664V92.84C45.4338 93.48 45.5724 94.0453 45.8498 94.536C46.1378 95.016 46.5324 95.3947 47.0338 95.672C47.5458 95.9387 48.1271 96.072 48.7778 96.072C49.2898 96.072 49.7644 95.9813 50.2018 95.8C50.6498 95.6187 51.0338 95.3413 51.3538 94.968L51.9938 95.704C51.6204 96.152 51.1511 96.4933 50.5858 96.728C50.0311 96.9627 49.4178 97.08 48.7458 97.08ZM54.834 97V85.128H55.97V97H54.834ZM62.6989 97.08C61.8242 97.08 61.0562 96.8987 60.3949 96.536C59.7335 96.1627 59.2162 95.656 58.8429 95.016C58.4695 94.3653 58.2829 93.624 58.2829 92.792C58.2829 91.96 58.4589 91.224 58.8109 90.584C59.1735 89.944 59.6642 89.4427 60.2829 89.08C60.9122 88.7067 61.6162 88.52 62.3949 88.52C63.1842 88.52 63.8829 88.7013 64.4909 89.064C65.1095 89.416 65.5949 89.9173 65.9469 90.568C66.2989 91.208 66.4749 91.9493 66.4749 92.792C66.4749 92.8453 66.4695 92.904 66.4589 92.968C66.4589 93.0213 66.4589 93.08 66.4589 93.144H59.1469V92.296H65.8509L65.4029 92.632C65.4029 92.024 65.2695 91.4853 65.0029 91.016C64.7469 90.536 64.3949 90.1627 63.9469 89.896C63.4989 89.6293 62.9815 89.496 62.3949 89.496C61.8189 89.496 61.3015 89.6293 60.8429 89.896C60.3842 90.1627 60.0269 90.536 59.7709 91.016C59.5149 91.496 59.3869 92.0453 59.3869 92.664V92.84C59.3869 93.48 59.5255 94.0453 59.8029 94.536C60.0909 95.016 60.4855 95.3947 60.9869 95.672C61.4989 95.9387 62.0802 96.072 62.7309 96.072C63.2429 96.072 63.7175 95.9813 64.1549 95.8C64.6029 95.6187 64.9869 95.3413 65.3069 94.968L65.9469 95.704C65.5735 96.152 65.1042 96.4933 64.5389 96.728C63.9842 96.9627 63.3709 97.08 62.6989 97.08ZM73.0751 88.52C73.7578 88.52 74.3551 88.6533 74.8671 88.92C75.3898 89.176 75.7951 89.5707 76.0831 90.104C76.3818 90.6373 76.5311 91.3093 76.5311 92.12V97H75.3951V92.232C75.3951 91.3467 75.1711 90.68 74.7231 90.232C74.2858 89.7733 73.6671 89.544 72.8671 89.544C72.2698 89.544 71.7471 89.6667 71.2991 89.912C70.8618 90.1467 70.5205 90.4933 70.2751 90.952C70.0405 91.4 69.9231 91.944 69.9231 92.584V97H68.7871V88.6H69.8751V90.904L69.6991 90.472C69.9658 89.864 70.3925 89.3893 70.9791 89.048C71.5658 88.696 72.2645 88.52 73.0751 88.52ZM82.2556 97.08C81.4663 97.08 80.8583 96.8667 80.4316 96.44C80.005 96.0133 79.7916 95.4107 79.7916 94.632V86.744H80.9276V94.568C80.9276 95.0587 81.0503 95.4373 81.2956 95.704C81.5516 95.9707 81.9143 96.104 82.3836 96.104C82.885 96.104 83.301 95.96 83.6316 95.672L84.0316 96.488C83.8076 96.6907 83.5356 96.84 83.2156 96.936C82.9063 97.032 82.5863 97.08 82.2556 97.08ZM78.2876 89.544V88.6H83.4876V89.544H78.2876ZM89.3708 97.08C88.4961 97.08 87.7281 96.8987 87.0668 96.536C86.4054 96.1627 85.8881 95.656 85.5148 95.016C85.1414 94.3653 84.9548 93.624 84.9548 92.792C84.9548 91.96 85.1308 91.224 85.4828 90.584C85.8454 89.944 86.3361 89.4427 86.9548 89.08C87.5841 88.7067 88.2881 88.52 89.0668 88.52C89.8561 88.52 90.5548 88.7013 91.1628 89.064C91.7814 89.416 92.2668 89.9173 92.6188 90.568C92.9708 91.208 93.1468 91.9493 93.1468 92.792C93.1468 92.8453 93.1414 92.904 93.1308 92.968C93.1308 93.0213 93.1308 93.08 93.1308 93.144H85.8188V92.296H92.5228L92.0748 92.632C92.0748 92.024 91.9414 91.4853 91.6748 91.016C91.4188 90.536 91.0668 90.1627 90.6188 89.896C90.1708 89.6293 89.6534 89.496 89.0668 89.496C88.4908 89.496 87.9734 89.6293 87.5148 89.896C87.0561 90.1627 86.6988 90.536 86.4428 91.016C86.1868 91.496 86.0588 92.0453 86.0588 92.664V92.84C86.0588 93.48 86.1974 94.0453 86.4748 94.536C86.7628 95.016 87.1574 95.3947 87.6588 95.672C88.1708 95.9387 88.7521 96.072 89.4028 96.072C89.9148 96.072 90.3894 95.9813 90.8268 95.8C91.2748 95.6187 91.6588 95.3413 91.9788 94.968L92.6188 95.704C92.2454 96.152 91.7761 96.4933 91.2108 96.728C90.6561 96.9627 90.0428 97.08 89.3708 97.08ZM95.507 93.64L95.283 85.8H96.627L96.387 93.64H95.507ZM95.955 97.08C95.7203 97.08 95.5177 97 95.347 96.84C95.187 96.6693 95.107 96.472 95.107 96.248C95.107 96.0133 95.187 95.8213 95.347 95.672C95.5177 95.512 95.7203 95.432 95.955 95.432C96.2003 95.432 96.3977 95.512 96.547 95.672C96.707 95.8213 96.787 96.0133 96.787 96.248C96.787 96.472 96.707 96.6693 96.547 96.84C96.3977 97 96.2003 97.08 95.955 97.08Z" fill="#141E39"/>
<path d="M255.088 147V138.96L255.472 139.368H253.108V138.6H255.952V147H255.088ZM260.468 147.072C259.86 147.072 259.284 146.976 258.74 146.784C258.204 146.584 257.772 146.32 257.444 145.992L257.864 145.308C258.136 145.588 258.5 145.82 258.956 146.004C259.42 146.188 259.924 146.28 260.468 146.28C261.164 146.28 261.696 146.128 262.064 145.824C262.44 145.52 262.628 145.112 262.628 144.6C262.628 144.088 262.444 143.68 262.076 143.376C261.716 143.072 261.144 142.92 260.36 142.92H259.76V142.284L262.352 139.032L262.472 139.368H257.792V138.6H263.192V139.212L260.6 142.464L260.18 142.188H260.504C261.512 142.188 262.264 142.412 262.76 142.86C263.264 143.308 263.516 143.884 263.516 144.588C263.516 145.06 263.404 145.484 263.18 145.86C262.956 146.236 262.616 146.532 262.16 146.748C261.712 146.964 261.148 147.072 260.468 147.072ZM263.809 148.2L267.769 136.896H268.549L264.589 148.2H263.809ZM271.867 147.072C271.219 147.072 270.643 146.904 270.139 146.568C269.635 146.224 269.239 145.736 268.951 145.104C268.663 144.464 268.519 143.696 268.519 142.8C268.519 141.904 268.663 141.14 268.951 140.508C269.239 139.868 269.635 139.38 270.139 139.044C270.643 138.7 271.219 138.528 271.867 138.528C272.515 138.528 273.091 138.7 273.595 139.044C274.099 139.38 274.495 139.868 274.783 140.508C275.079 141.14 275.227 141.904 275.227 142.8C275.227 143.696 275.079 144.464 274.783 145.104C274.495 145.736 274.099 146.224 273.595 146.568C273.091 146.904 272.515 147.072 271.867 147.072ZM271.867 146.28C272.363 146.28 272.795 146.148 273.163 145.884C273.531 145.612 273.819 145.22 274.027 144.708C274.235 144.188 274.339 143.552 274.339 142.8C274.339 142.048 274.235 141.416 274.027 140.904C273.819 140.384 273.531 139.992 273.163 139.728C272.795 139.456 272.363 139.32 271.867 139.32C271.387 139.32 270.959 139.456 270.583 139.728C270.207 139.992 269.915 140.384 269.707 140.904C269.499 141.416 269.395 142.048 269.395 142.8C269.395 143.552 269.499 144.188 269.707 144.708C269.915 145.22 270.207 145.612 270.583 145.884C270.959 146.148 271.387 146.28 271.867 146.28ZM276.308 147V146.388L279.8 142.968C280.12 142.656 280.36 142.384 280.52 142.152C280.68 141.912 280.788 141.688 280.844 141.48C280.9 141.272 280.928 141.076 280.928 140.892C280.928 140.404 280.76 140.02 280.424 139.74C280.096 139.46 279.608 139.32 278.96 139.32C278.464 139.32 278.024 139.396 277.64 139.548C277.264 139.7 276.94 139.936 276.668 140.256L276.056 139.728C276.384 139.344 276.804 139.048 277.316 138.84C277.828 138.632 278.4 138.528 279.032 138.528C279.6 138.528 280.092 138.62 280.508 138.804C280.924 138.98 281.244 139.24 281.468 139.584C281.7 139.928 281.816 140.332 281.816 140.796C281.816 141.068 281.776 141.336 281.696 141.6C281.624 141.864 281.488 142.144 281.288 142.44C281.096 142.728 280.812 143.056 280.436 143.424L277.232 146.568L276.992 146.232H282.2V147H276.308ZM282.477 148.2L286.437 136.896H287.217L283.257 148.2H282.477ZM287.265 147V146.388L290.757 142.968C291.077 142.656 291.317 142.384 291.477 142.152C291.637 141.912 291.745 141.688 291.801 141.48C291.857 141.272 291.885 141.076 291.885 140.892C291.885 140.404 291.717 140.02 291.381 139.74C291.053 139.46 290.565 139.32 289.917 139.32C289.421 139.32 288.981 139.396 288.597 139.548C288.221 139.7 287.897 139.936 287.625 140.256L287.013 139.728C287.341 139.344 287.761 139.048 288.273 138.84C288.785 138.632 289.357 138.528 289.989 138.528C290.557 138.528 291.049 138.62 291.465 138.804C291.881 138.98 292.201 139.24 292.425 139.584C292.657 139.928 292.773 140.332 292.773 140.796C292.773 141.068 292.733 141.336 292.653 141.6C292.581 141.864 292.445 142.144 292.245 142.44C292.053 142.728 291.769 143.056 291.393 143.424L288.189 146.568L287.949 146.232H293.157V147H287.265ZM297.566 147.072C296.918 147.072 296.342 146.904 295.838 146.568C295.334 146.224 294.938 145.736 294.65 145.104C294.362 144.464 294.218 143.696 294.218 142.8C294.218 141.904 294.362 141.14 294.65 140.508C294.938 139.868 295.334 139.38 295.838 139.044C296.342 138.7 296.918 138.528 297.566 138.528C298.214 138.528 298.79 138.7 299.294 139.044C299.798 139.38 300.194 139.868 300.482 140.508C300.778 141.14 300.926 141.904 300.926 142.8C300.926 143.696 300.778 144.464 300.482 145.104C300.194 145.736 299.798 146.224 299.294 146.568C298.79 146.904 298.214 147.072 297.566 147.072ZM297.566 146.28C298.062 146.28 298.494 146.148 298.862 145.884C299.23 145.612 299.518 145.22 299.726 144.708C299.934 144.188 300.038 143.552 300.038 142.8C300.038 142.048 299.934 141.416 299.726 140.904C299.518 140.384 299.23 139.992 298.862 139.728C298.494 139.456 298.062 139.32 297.566 139.32C297.086 139.32 296.658 139.456 296.282 139.728C295.906 139.992 295.614 140.384 295.406 140.904C295.198 141.416 295.094 142.048 295.094 142.8C295.094 143.552 295.198 144.188 295.406 144.708C295.614 145.22 295.906 145.612 296.282 145.884C296.658 146.148 297.086 146.28 297.566 146.28ZM302.007 147V146.388L305.499 142.968C305.819 142.656 306.059 142.384 306.219 142.152C306.379 141.912 306.487 141.688 306.543 141.48C306.599 141.272 306.627 141.076 306.627 140.892C306.627 140.404 306.459 140.02 306.123 139.74C305.795 139.46 305.307 139.32 304.659 139.32C304.163 139.32 303.723 139.396 303.339 139.548C302.963 139.7 302.639 139.936 302.367 140.256L301.755 139.728C302.083 139.344 302.503 139.048 303.015 138.84C303.527 138.632 304.099 138.528 304.731 138.528C305.299 138.528 305.791 138.62 306.207 138.804C306.623 138.98 306.943 139.24 307.167 139.584C307.399 139.928 307.515 140.332 307.515 140.796C307.515 141.068 307.475 141.336 307.395 141.6C307.323 141.864 307.187 142.144 306.987 142.44C306.795 142.728 306.511 143.056 306.135 143.424L302.931 146.568L302.691 146.232H307.899V147H302.007ZM311.491 147.072C310.883 147.072 310.307 146.976 309.763 146.784C309.227 146.584 308.795 146.32 308.467 145.992L308.887 145.308C309.159 145.588 309.523 145.82 309.979 146.004C310.443 146.188 310.947 146.28 311.491 146.28C312.187 146.28 312.719 146.128 313.087 145.824C313.463 145.52 313.651 145.112 313.651 144.6C313.651 144.088 313.467 143.68 313.099 143.376C312.739 143.072 312.167 142.92 311.383 142.92H310.783V142.284L313.375 139.032L313.495 139.368H308.815V138.6H314.215V139.212L311.623 142.464L311.203 142.188H311.527C312.535 142.188 313.287 142.412 313.783 142.86C314.287 143.308 314.539 143.884 314.539 144.588C314.539 145.06 314.427 145.484 314.203 145.86C313.979 146.236 313.639 146.532 313.183 146.748C312.735 146.964 312.171 147.072 311.491 147.072Z" fill="#141E39"/>
<rect x="231" y="15" width="91" height="21" rx="10.5" fill="white"/>
<path d="M240.883 30.6667L241.967 25.9833L238.333 22.8333L243.133 22.4167L245 18L246.867 22.4167L251.667 22.8333L248.033 25.9833L249.117 30.6667L245 28.1833L240.883 30.6667Z" fill="#61B3FB"/>
<path d="M256.883 30.6667L257.967 25.9833L254.333 22.8333L259.133 22.4167L261 18L262.867 22.4167L267.667 22.8333L264.033 25.9833L265.117 30.6667L261 28.1833L256.883 30.6667Z" fill="#61B3FB"/>
<path d="M272.883 30.6667L273.967 25.9833L270.333 22.8333L275.133 22.4167L277 18L278.867 22.4167L283.667 22.8333L280.033 25.9833L281.117 30.6667L277 28.1833L272.883 30.6667Z" fill="#61B3FB"/>
<path d="M288.883 30.6667L289.967 25.9833L286.333 22.8333L291.133 22.4167L293 18L294.867 22.4167L299.667 22.8333L296.033 25.9833L297.117 30.6667L293 28.1833L288.883 30.6667Z" fill="#61B3FB"/>
<path d="M304.883 30.6667L305.967 25.9833L302.333 22.8333L307.133 22.4167L309 18L310.867 22.4167L315.667 22.8333L312.033 25.9833L313.117 30.6667L309 28.1833L304.883 30.6667Z" fill="#61B3FB"/>
</svg>
