<svg width="405" height="200" viewBox="0 0 405 200" fill="none" xmlns="http://www.w3.org/2000/svg">
<rect x="0.5" y="0.770264" width="404" height="198.459" rx="15.5" fill="white" stroke="#141E39"/>
<path d="M0.5 16C0.5 7.43959 7.43959 0.5 16 0.5H389C397.56 0.5 404.5 7.43959 404.5 16V81.5H0.5V16Z" fill="#141E39" stroke="#141E39"/>
<path d="M102.44 48L102.4 34H99.74L94.58 42.7L89.34 34H86.66V48H89.7V39.78L93.8 46.52H95.26L99.38 39.6L99.4 48H102.44ZM107.102 35.74C108.262 35.74 109.042 34.98 109.042 33.94C109.042 32.98 108.262 32.26 107.102 32.26C105.942 32.26 105.162 33.02 105.162 34C105.162 34.98 105.942 35.74 107.102 35.74ZM105.542 48H108.662V37.24H105.542V48ZM111.557 48H114.677V33.16H111.557V48ZM128.113 42.66C128.113 39.2 125.673 37.08 122.513 37.08C119.233 37.08 116.773 39.4 116.773 42.62C116.773 45.82 119.193 48.16 122.913 48.16C124.853 48.16 126.353 47.56 127.353 46.42L125.693 44.62C124.953 45.32 124.133 45.66 122.993 45.66C121.353 45.66 120.213 44.84 119.913 43.5H128.053C128.073 43.24 128.113 42.9 128.113 42.66ZM122.533 39.44C123.933 39.44 124.953 40.32 125.173 41.68H119.873C120.093 40.3 121.113 39.44 122.533 39.44ZM136.73 37.08C135.27 37.08 134.01 37.58 133.17 38.5V37.24H130.19V48H133.31V42.68C133.31 40.7 134.39 39.78 135.89 39.78C137.27 39.78 138.07 40.58 138.07 42.32V48H141.19V41.84C141.19 38.56 139.27 37.08 136.73 37.08ZM148.358 37.08C146.638 37.08 144.898 37.54 143.718 38.38L144.838 40.56C145.618 39.94 146.798 39.56 147.938 39.56C149.618 39.56 150.418 40.34 150.418 41.68H147.938C144.658 41.68 143.318 43 143.318 44.9C143.318 46.76 144.818 48.16 147.338 48.16C148.918 48.16 150.038 47.64 150.618 46.66V48H153.538V41.86C153.538 38.6 151.638 37.08 148.358 37.08ZM148.118 46.06C147.018 46.06 146.358 45.54 146.358 44.76C146.358 44.04 146.818 43.5 148.278 43.5H150.418V44.6C150.058 45.58 149.158 46.06 148.118 46.06ZM168.946 48.24C171.386 48.24 173.406 47.36 174.726 45.74L172.646 43.82C171.706 44.92 170.526 45.48 169.126 45.48C166.506 45.48 164.646 43.64 164.646 41C164.646 38.36 166.506 36.52 169.126 36.52C170.526 36.52 171.706 37.08 172.646 38.16L174.726 36.24C173.406 34.64 171.386 33.76 168.966 33.76C164.606 33.76 161.366 36.78 161.366 41C161.366 45.22 164.606 48.24 168.946 48.24ZM180.956 37.08C179.236 37.08 177.496 37.54 176.316 38.38L177.436 40.56C178.216 39.94 179.396 39.56 180.536 39.56C182.216 39.56 183.016 40.34 183.016 41.68H180.536C177.256 41.68 175.916 43 175.916 44.9C175.916 46.76 177.416 48.16 179.936 48.16C181.516 48.16 182.636 47.64 183.216 46.66V48H186.136V41.86C186.136 38.6 184.236 37.08 180.956 37.08ZM180.716 46.06C179.616 46.06 178.956 45.54 178.956 44.76C178.956 44.04 179.416 43.5 180.876 43.5H183.016V44.6C182.656 45.58 181.756 46.06 180.716 46.06ZM192.58 48.16C195.8 48.16 197.66 46.74 197.66 44.74C197.66 40.5 191.16 42.28 191.16 40.44C191.16 39.88 191.76 39.44 193.16 39.44C194.14 39.44 195.2 39.64 196.26 40.24L197.3 38.02C196.28 37.42 194.64 37.08 193.16 37.08C190.02 37.08 188.18 38.52 188.18 40.56C188.18 44.86 194.68 43.06 194.68 44.82C194.68 45.42 194.14 45.8 192.7 45.8C191.38 45.8 189.92 45.38 188.96 44.76L187.92 47C188.92 47.66 190.76 48.16 192.58 48.16ZM205.685 45.28C205.345 45.54 204.885 45.68 204.425 45.68C203.585 45.68 203.085 45.18 203.085 44.26V39.88H205.765V37.48H203.085V34.86H199.965V37.48H198.305V39.88H199.965V44.3C199.965 46.86 201.445 48.16 203.985 48.16C204.945 48.16 205.885 47.94 206.525 47.48L205.685 45.28ZM211.256 38.66V37.24H208.276V48H211.396V42.92C211.396 40.86 212.536 39.92 214.256 39.92C214.496 39.92 214.696 39.94 214.956 39.96V37.08C213.296 37.08 212.016 37.62 211.256 38.66ZM221.833 48.16C225.253 48.16 227.733 45.86 227.733 42.62C227.733 39.38 225.253 37.08 221.833 37.08C218.413 37.08 215.913 39.38 215.913 42.62C215.913 45.86 218.413 48.16 221.833 48.16ZM221.833 45.6C220.273 45.6 219.073 44.48 219.073 42.62C219.073 40.76 220.273 39.64 221.833 39.64C223.393 39.64 224.573 40.76 224.573 42.62C224.573 44.48 223.393 45.6 221.833 45.6Z" fill="#61B3FB"/>
<circle cx="43.7838" cy="44.0541" r="24.3243" fill="#61B3FB"/>
<path d="M52.1428 50.6758L52.1028 36.6758H49.4428L44.2828 45.3758L39.0428 36.6758H36.3628V50.6758H39.4028V42.4558L43.5028 49.1958H44.9628L49.0828 42.2758L49.1028 50.6758H52.1428Z" fill="white"/>
<path d="M23.912 103.096C26.776 103.096 28.088 101.688 28.088 100.04C28.088 95.96 21.192 97.816 21.192 94.744C21.192 93.624 22.104 92.712 24.152 92.712C25.144 92.712 26.264 93.016 27.224 93.64L27.624 92.696C26.728 92.072 25.416 91.704 24.152 91.704C21.304 91.704 20.024 93.128 20.024 94.776C20.024 98.92 26.92 97.032 26.92 100.104C26.92 101.208 26.008 102.088 23.912 102.088C22.44 102.088 21.016 101.512 20.216 100.728L19.752 101.64C20.584 102.504 22.232 103.096 23.912 103.096ZM36.8758 94.584V99C36.8758 100.92 35.7718 102.056 34.0118 102.056C32.4118 102.056 31.4838 101.144 31.4838 99.352V94.584H30.3478V99.464C30.3478 101.88 31.7558 103.08 33.8998 103.08C35.2438 103.08 36.3318 102.488 36.9237 101.464V103H38.0118V94.584H36.8758ZM45.5294 94.52C44.1374 94.52 42.9694 95.128 42.2814 96.248V94.584H41.1934V106.104H42.3294V101.416C43.0334 102.504 44.1854 103.08 45.5294 103.08C47.9294 103.08 49.7214 101.352 49.7214 98.792C49.7214 96.248 47.9294 94.52 45.5294 94.52ZM45.4494 102.072C43.6574 102.072 42.3134 100.76 42.3134 98.792C42.3134 96.84 43.6574 95.512 45.4494 95.512C47.2254 95.512 48.5854 96.84 48.5854 98.792C48.5854 100.76 47.2254 102.072 45.4494 102.072ZM59.3811 98.792C59.3811 96.264 57.6691 94.52 55.3011 94.52C52.9331 94.52 51.1891 96.296 51.1891 98.792C51.1891 101.288 52.9811 103.08 55.6051 103.08C56.9331 103.08 58.1011 102.6 58.8531 101.704L58.2131 100.968C57.5731 101.704 56.6611 102.072 55.6371 102.072C53.7971 102.072 52.4531 100.904 52.3251 99.144H59.3651C59.3651 99.016 59.3811 98.888 59.3811 98.792ZM55.3011 95.496C56.9491 95.496 58.1491 96.648 58.2931 98.296H52.3251C52.4691 96.648 53.6691 95.496 55.3011 95.496ZM62.7814 96.232V94.584H61.6934V103H62.8294V98.712C62.8294 96.728 63.9014 95.608 65.6614 95.608C65.7414 95.608 65.8374 95.624 65.9334 95.624V94.52C64.3814 94.52 63.3094 95.112 62.7814 96.232ZM70.9186 94.52C69.5906 94.52 68.3426 94.936 67.4946 95.656L68.0066 96.504C68.6946 95.896 69.7186 95.512 70.8066 95.512C72.3746 95.512 73.1906 96.296 73.1906 97.736V98.248H70.5186C68.1026 98.248 67.2706 99.336 67.2706 100.632C67.2706 102.088 68.4386 103.08 70.3426 103.08C71.7346 103.08 72.7266 102.552 73.2386 101.688V103H74.3266V97.784C74.3266 95.608 73.0946 94.52 70.9186 94.52ZM70.5186 102.184C69.1746 102.184 68.3906 101.576 68.3906 100.6C68.3906 99.736 68.9186 99.096 70.5506 99.096H73.1906V100.472C72.7426 101.576 71.7986 102.184 70.5186 102.184ZM78.5001 96.232V94.584H77.4121V103H78.5481V98.712C78.5481 96.728 79.6201 95.608 81.3801 95.608C81.4601 95.608 81.5561 95.624 81.6521 95.624V94.52C80.1001 94.52 79.0281 95.112 78.5001 96.232ZM86.6374 94.52C85.3094 94.52 84.0614 94.936 83.2134 95.656L83.7254 96.504C84.4134 95.896 85.4374 95.512 86.5254 95.512C88.0934 95.512 88.9094 96.296 88.9094 97.736V98.248H86.2374C83.8214 98.248 82.9894 99.336 82.9894 100.632C82.9894 102.088 84.1574 103.08 86.0614 103.08C87.4534 103.08 88.4454 102.552 88.9574 101.688V103H90.0454V97.784C90.0454 95.608 88.8134 94.52 86.6374 94.52ZM86.2374 102.184C84.8934 102.184 84.1094 101.576 84.1094 100.6C84.1094 99.736 84.6374 99.096 86.2694 99.096H88.9094V100.472C88.4614 101.576 87.5174 102.184 86.2374 102.184ZM103.627 94.52C102.107 94.52 100.907 95.208 100.299 96.296C99.7869 95.112 98.6989 94.52 97.3069 94.52C95.8989 94.52 94.8109 95.112 94.2189 96.12V94.584H93.1309V103H94.2669V98.584C94.2669 96.664 95.3709 95.544 97.0829 95.544C98.6189 95.544 99.5149 96.456 99.5149 98.232V103H100.651V98.584C100.651 96.664 101.739 95.544 103.467 95.544C104.987 95.544 105.883 96.456 105.883 98.232V103H107.019V98.12C107.019 95.704 105.675 94.52 103.627 94.52ZM124.783 94.52C123.263 94.52 122.063 95.208 121.455 96.296C120.943 95.112 119.855 94.52 118.463 94.52C117.055 94.52 115.967 95.112 115.375 96.12V94.584H114.287V103H115.423V98.584C115.423 96.664 116.527 95.544 118.239 95.544C119.775 95.544 120.671 96.456 120.671 98.232V103H121.807V98.584C121.807 96.664 122.895 95.544 124.623 95.544C126.143 95.544 127.039 96.456 127.039 98.232V103H128.175V98.12C128.175 95.704 126.831 94.52 124.783 94.52ZM131.832 92.744C132.312 92.744 132.664 92.376 132.664 91.912C132.664 91.48 132.296 91.128 131.832 91.128C131.368 91.128 131 91.496 131 91.928C131 92.376 131.368 92.744 131.832 92.744ZM131.256 103H132.392V94.584H131.256V103ZM139.841 94.52C138.385 94.52 137.249 95.112 136.641 96.136V94.584H135.553V103H136.689V98.584C136.689 96.664 137.825 95.544 139.633 95.544C141.233 95.544 142.161 96.456 142.161 98.232V103H143.297V98.12C143.297 95.704 141.889 94.52 139.841 94.52ZM150.669 94.52C149.245 94.52 148.141 95.08 147.517 96.056V91.128H146.381V103H147.517V98.584C147.517 96.664 148.653 95.544 150.461 95.544C152.061 95.544 152.989 96.456 152.989 98.232V103H154.125V98.12C154.125 95.704 152.717 94.52 150.669 94.52ZM160.153 94.52C158.825 94.52 157.577 94.936 156.729 95.656L157.241 96.504C157.929 95.896 158.953 95.512 160.041 95.512C161.609 95.512 162.425 96.296 162.425 97.736V98.248H159.753C157.337 98.248 156.505 99.336 156.505 100.632C156.505 102.088 157.673 103.08 159.577 103.08C160.969 103.08 161.961 102.552 162.473 101.688V103H163.561V97.784C163.561 95.608 162.329 94.52 160.153 94.52ZM159.753 102.184C158.409 102.184 157.625 101.576 157.625 100.6C157.625 99.736 158.153 99.096 159.785 99.096H162.425V100.472C161.977 101.576 161.033 102.184 159.753 102.184ZM168.903 103.08C171.095 103.08 172.375 102.136 172.375 100.68C172.375 97.448 166.919 99.16 166.919 96.888C166.919 96.088 167.591 95.496 169.111 95.496C169.975 95.496 170.855 95.704 171.591 96.216L172.087 95.304C171.383 94.824 170.199 94.52 169.111 94.52C166.967 94.52 165.783 95.544 165.783 96.92C165.783 100.248 171.239 98.52 171.239 100.712C171.239 101.544 170.583 102.088 168.983 102.088C167.799 102.088 166.663 101.672 165.991 101.144L165.479 102.04C166.167 102.632 167.511 103.08 168.903 103.08ZM186.006 98.792C186.006 96.264 184.294 94.52 181.926 94.52C179.558 94.52 177.814 96.296 177.814 98.792C177.814 101.288 179.606 103.08 182.23 103.08C183.558 103.08 184.726 102.6 185.478 101.704L184.838 100.968C184.198 101.704 183.286 102.072 182.262 102.072C180.422 102.072 179.078 100.904 178.95 99.144H185.99C185.99 99.016 186.006 98.888 186.006 98.792ZM181.926 95.496C183.574 95.496 184.774 96.648 184.918 98.296H178.95C179.094 96.648 180.294 95.496 181.926 95.496ZM194.74 103L191.38 98.68L194.548 94.584H193.3L190.772 97.88L188.244 94.584H186.964L190.132 98.68L186.804 103H188.084L190.772 99.48L193.444 103H194.74ZM200.967 94.52C199.575 94.52 198.407 95.128 197.719 96.248V94.584H196.631V106.104H197.767V101.416C198.471 102.504 199.623 103.08 200.967 103.08C203.367 103.08 205.159 101.352 205.159 98.792C205.159 96.248 203.367 94.52 200.967 94.52ZM200.887 102.072C199.095 102.072 197.751 100.76 197.751 98.792C197.751 96.84 199.095 95.512 200.887 95.512C202.663 95.512 204.023 96.84 204.023 98.792C204.023 100.76 202.663 102.072 200.887 102.072ZM214.819 98.792C214.819 96.264 213.107 94.52 210.739 94.52C208.371 94.52 206.627 96.296 206.627 98.792C206.627 101.288 208.419 103.08 211.043 103.08C212.371 103.08 213.539 102.6 214.291 101.704L213.651 100.968C213.011 101.704 212.099 102.072 211.075 102.072C209.235 102.072 207.891 100.904 207.763 99.144H214.803C214.803 99.016 214.819 98.888 214.819 98.792ZM210.739 95.496C212.387 95.496 213.587 96.648 213.731 98.296H207.763C207.907 96.648 209.107 95.496 210.739 95.496ZM220.619 103.08C222.043 103.08 223.243 102.504 223.915 101.416L223.067 100.84C222.491 101.688 221.595 102.072 220.619 102.072C218.779 102.072 217.435 100.776 217.435 98.792C217.435 96.824 218.779 95.512 220.619 95.512C221.595 95.512 222.491 95.912 223.067 96.76L223.915 96.184C223.243 95.08 222.043 94.52 220.619 94.52C218.107 94.52 216.283 96.28 216.283 98.792C216.283 101.304 218.107 103.08 220.619 103.08ZM230.272 101.672C229.952 101.96 229.488 102.104 229.024 102.104C228.08 102.104 227.568 101.56 227.568 100.568V95.544H230.128V94.584H227.568V92.744H226.432V94.584H224.928V95.544H226.432V100.632C226.432 102.184 227.312 103.08 228.896 103.08C229.552 103.08 230.224 102.888 230.672 102.488L230.272 101.672ZM235.684 94.52C234.356 94.52 233.108 94.936 232.26 95.656L232.772 96.504C233.46 95.896 234.484 95.512 235.572 95.512C237.14 95.512 237.956 96.296 237.956 97.736V98.248H235.284C232.868 98.248 232.036 99.336 232.036 100.632C232.036 102.088 233.204 103.08 235.108 103.08C236.5 103.08 237.492 102.552 238.004 101.688V103H239.092V97.784C239.092 95.608 237.86 94.52 235.684 94.52ZM235.284 102.184C233.94 102.184 233.156 101.576 233.156 100.6C233.156 99.736 233.684 99.096 235.316 99.096H237.956V100.472C237.508 101.576 236.564 102.184 235.284 102.184ZM246.21 101.672C245.89 101.96 245.426 102.104 244.962 102.104C244.018 102.104 243.506 101.56 243.506 100.568V95.544H246.066V94.584H243.506V92.744H242.37V94.584H240.866V95.544H242.37V100.632C242.37 102.184 243.25 103.08 244.834 103.08C245.49 103.08 246.162 102.888 246.61 102.488L246.21 101.672ZM249.254 92.744C249.734 92.744 250.086 92.376 250.086 91.912C250.086 91.48 249.718 91.128 249.254 91.128C248.79 91.128 248.422 91.496 248.422 91.928C248.422 92.376 248.79 92.744 249.254 92.744ZM248.678 103H249.814V94.584H248.678V103ZM258.927 94.584L255.743 101.752L252.591 94.584H251.407L255.135 103H256.303L260.047 94.584H258.927ZM264.341 94.52C263.013 94.52 261.765 94.936 260.917 95.656L261.429 96.504C262.117 95.896 263.141 95.512 264.229 95.512C265.797 95.512 266.613 96.296 266.613 97.736V98.248H263.941C261.525 98.248 260.693 99.336 260.693 100.632C260.693 102.088 261.861 103.08 263.765 103.08C265.157 103.08 266.149 102.552 266.661 101.688V103H267.749V97.784C267.749 95.608 266.517 94.52 264.341 94.52ZM263.941 102.184C262.597 102.184 261.812 101.576 261.812 100.6C261.812 99.736 262.341 99.096 263.973 99.096H266.613V100.472C266.165 101.576 265.221 102.184 263.941 102.184ZM273.09 103.08C275.282 103.08 276.562 102.136 276.562 100.68C276.562 97.448 271.106 99.16 271.106 96.888C271.106 96.088 271.778 95.496 273.298 95.496C274.162 95.496 275.042 95.704 275.778 96.216L276.274 95.304C275.57 94.824 274.386 94.52 273.298 94.52C271.154 94.52 269.97 95.544 269.97 96.92C269.97 100.248 275.426 98.52 275.426 100.712C275.426 101.544 274.77 102.088 273.17 102.088C271.986 102.088 270.85 101.672 270.178 101.144L269.666 102.04C270.354 102.632 271.698 103.08 273.09 103.08ZM278.79 101.336C278.31 101.336 277.942 101.704 277.942 102.2C277.942 102.616 278.182 102.92 278.518 103.016L277.974 105.336H278.742L279.414 103.128C279.574 102.68 279.638 102.472 279.638 102.2C279.638 101.72 279.286 101.336 278.79 101.336ZM289.68 103.08C292.144 103.08 293.952 101.288 293.952 98.792C293.952 96.296 292.144 94.52 289.68 94.52C287.216 94.52 285.392 96.296 285.392 98.792C285.392 101.288 287.216 103.08 289.68 103.08ZM289.68 102.072C287.888 102.072 286.544 100.76 286.544 98.792C286.544 96.824 287.888 95.512 289.68 95.512C291.472 95.512 292.8 96.824 292.8 98.792C292.8 100.76 291.472 102.072 289.68 102.072ZM23.528 114.52C22.2 114.52 20.952 114.936 20.104 115.656L20.616 116.504C21.304 115.896 22.328 115.512 23.416 115.512C24.984 115.512 25.8 116.296 25.8 117.736V118.248H23.128C20.712 118.248 19.88 119.336 19.88 120.632C19.88 122.088 21.048 123.08 22.952 123.08C24.344 123.08 25.336 122.552 25.848 121.688V123H26.936V117.784C26.936 115.608 25.704 114.52 23.528 114.52ZM23.128 122.184C21.784 122.184 21 121.576 21 120.6C21 119.736 21.528 119.096 23.16 119.096H25.8V120.472C25.352 121.576 24.408 122.184 23.128 122.184ZM34.3575 114.52C32.9655 114.52 31.7975 115.128 31.1095 116.248V114.584H30.0215V126.104H31.1575V121.416C31.8615 122.504 33.0135 123.08 34.3575 123.08C36.7575 123.08 38.5495 121.352 38.5495 118.792C38.5495 116.248 36.7575 114.52 34.3575 114.52ZM34.2775 122.072C32.4855 122.072 31.1415 120.76 31.1415 118.792C31.1415 116.84 32.4855 115.512 34.2775 115.512C36.0535 115.512 37.4135 116.84 37.4135 118.792C37.4135 120.76 36.0535 122.072 34.2775 122.072ZM43.7624 114.52C42.4344 114.52 41.1864 114.936 40.3384 115.656L40.8504 116.504C41.5384 115.896 42.5624 115.512 43.6504 115.512C45.2184 115.512 46.0344 116.296 46.0344 117.736V118.248H43.3624C40.9464 118.248 40.1144 119.336 40.1144 120.632C40.1144 122.088 41.2824 123.08 43.1864 123.08C44.5784 123.08 45.5704 122.552 46.0824 121.688V123H47.1704V117.784C47.1704 115.608 45.9384 114.52 43.7624 114.52ZM43.3624 122.184C42.0184 122.184 41.2344 121.576 41.2344 120.6C41.2344 119.736 41.7624 119.096 43.3944 119.096H46.0344V120.472C45.5864 121.576 44.6424 122.184 43.3624 122.184ZM51.3439 116.232V114.584H50.2559V123H51.3919V118.712C51.3919 116.728 52.4639 115.608 54.2239 115.608C54.3039 115.608 54.3999 115.624 54.4959 115.624V114.52C52.9439 114.52 51.8719 115.112 51.3439 116.232ZM60.9441 121.672C60.6241 121.96 60.1601 122.104 59.6961 122.104C58.7521 122.104 58.2401 121.56 58.2401 120.568V115.544H60.8001V114.584H58.2401V112.744H57.1041V114.584H55.6001V115.544H57.1041V120.632C57.1041 122.184 57.9841 123.08 59.5681 123.08C60.2241 123.08 60.8961 122.888 61.3441 122.488L60.9441 121.672ZM66.3561 114.52C65.0281 114.52 63.7801 114.936 62.9321 115.656L63.4441 116.504C64.1321 115.896 65.1561 115.512 66.2441 115.512C67.8121 115.512 68.6281 116.296 68.6281 117.736V118.248H65.9561C63.5401 118.248 62.7081 119.336 62.7081 120.632C62.7081 122.088 63.8761 123.08 65.7801 123.08C67.1721 123.08 68.1641 122.552 68.6761 121.688V123H69.7641V117.784C69.7641 115.608 68.5321 114.52 66.3561 114.52ZM65.9561 122.184C64.6121 122.184 63.8281 121.576 63.8281 120.6C63.8281 119.736 64.3561 119.096 65.9881 119.096H68.6281V120.472C68.1801 121.576 67.2361 122.184 65.9561 122.184ZM83.3456 114.52C81.8256 114.52 80.6256 115.208 80.0176 116.296C79.5056 115.112 78.4176 114.52 77.0256 114.52C75.6176 114.52 74.5296 115.112 73.9376 116.12V114.584H72.8496V123H73.9856V118.584C73.9856 116.664 75.0896 115.544 76.8016 115.544C78.3376 115.544 79.2336 116.456 79.2336 118.232V123H80.3696V118.584C80.3696 116.664 81.4576 115.544 83.1856 115.544C84.7056 115.544 85.6016 116.456 85.6016 118.232V123H86.7376V118.12C86.7376 115.704 85.3936 114.52 83.3456 114.52ZM97.1936 118.792C97.1936 116.264 95.4816 114.52 93.1136 114.52C90.7456 114.52 89.0016 116.296 89.0016 118.792C89.0016 121.288 90.7936 123.08 93.4176 123.08C94.7456 123.08 95.9136 122.6 96.6656 121.704L96.0256 120.968C95.3856 121.704 94.4736 122.072 93.4496 122.072C91.6096 122.072 90.2656 120.904 90.1376 119.144H97.1776C97.1776 119.016 97.1936 118.888 97.1936 118.792ZM93.1136 115.496C94.7616 115.496 95.9616 116.648 96.1056 118.296H90.1376C90.2816 116.648 91.4816 115.496 93.1136 115.496ZM103.794 114.52C102.338 114.52 101.202 115.112 100.594 116.136V114.584H99.5059V123H100.642V118.584C100.642 116.664 101.778 115.544 103.586 115.544C105.186 115.544 106.114 116.456 106.114 118.232V123H107.25V118.12C107.25 115.704 105.842 114.52 103.794 114.52ZM114.366 121.672C114.046 121.96 113.582 122.104 113.118 122.104C112.174 122.104 111.662 121.56 111.662 120.568V115.544H114.222V114.584H111.662V112.744H110.526V114.584H109.022V115.544H110.526V120.632C110.526 122.184 111.406 123.08 112.99 123.08C113.646 123.08 114.318 122.888 114.766 122.488L114.366 121.672ZM119.977 123.08C122.441 123.08 124.249 121.288 124.249 118.792C124.249 116.296 122.441 114.52 119.977 114.52C117.513 114.52 115.689 116.296 115.689 118.792C115.689 121.288 117.513 123.08 119.977 123.08ZM119.977 122.072C118.185 122.072 116.841 120.76 116.841 118.792C116.841 116.824 118.185 115.512 119.977 115.512C121.769 115.512 123.097 116.824 123.097 118.792C123.097 120.76 121.769 122.072 119.977 122.072ZM130.948 113.544V114.584H129.444V115.544H130.948V123H132.084V115.544H134.644V114.584H132.052V113.592C132.052 112.552 132.564 112.008 133.54 112.008C134.02 112.008 134.468 112.152 134.788 112.424L135.172 111.576C134.756 111.224 134.116 111.048 133.492 111.048C131.844 111.048 130.948 112.04 130.948 113.544ZM138.036 111.128C137.572 111.128 137.204 111.496 137.204 111.928C137.204 112.376 137.572 112.744 138.036 112.744C138.516 112.744 138.868 112.376 138.868 111.912C138.868 111.48 138.5 111.128 138.036 111.128ZM137.46 123H138.596V114.584H137.46V123ZM145.26 123.08C146.684 123.08 147.884 122.504 148.556 121.416L147.708 120.84C147.132 121.688 146.236 122.072 145.26 122.072C143.42 122.072 142.076 120.776 142.076 118.792C142.076 116.824 143.42 115.512 145.26 115.512C146.236 115.512 147.132 115.912 147.708 116.76L148.556 116.184C147.884 115.08 146.684 114.52 145.26 114.52C142.748 114.52 140.924 116.28 140.924 118.792C140.924 121.304 142.748 123.08 145.26 123.08ZM154.087 123.08C156.551 123.08 158.359 121.288 158.359 118.792C158.359 116.296 156.551 114.52 154.087 114.52C151.623 114.52 149.799 116.296 149.799 118.792C149.799 121.288 151.623 123.08 154.087 123.08ZM154.087 122.072C152.295 122.072 150.951 120.76 150.951 118.792C150.951 116.824 152.295 115.512 154.087 115.512C155.879 115.512 157.207 116.824 157.207 118.792C157.207 120.76 155.879 122.072 154.087 122.072ZM167.126 114.584V119C167.126 120.92 166.022 122.056 164.262 122.056C162.662 122.056 161.734 121.144 161.734 119.352V114.584H160.598V119.464C160.598 121.88 162.006 123.08 164.15 123.08C165.494 123.08 166.582 122.488 167.174 121.464V123H168.262V114.584H167.126ZM176.207 112.744C176.687 112.744 177.039 112.376 177.039 111.912C177.039 111.48 176.671 111.128 176.207 111.128C175.743 111.128 175.375 111.496 175.375 111.928C175.375 112.376 175.743 112.744 176.207 112.744ZM175.631 123H176.767V114.584H175.631V123ZM190.424 114.52C188.904 114.52 187.704 115.208 187.096 116.296C186.584 115.112 185.496 114.52 184.104 114.52C182.696 114.52 181.608 115.112 181.016 116.12V114.584H179.928V123H181.064V118.584C181.064 116.664 182.168 115.544 183.88 115.544C185.416 115.544 186.312 116.456 186.312 118.232V123H187.448V118.584C187.448 116.664 188.536 115.544 190.264 115.544C191.784 115.544 192.68 116.456 192.68 118.232V123H193.816V118.12C193.816 115.704 192.472 114.52 190.424 114.52ZM201.233 114.52C199.841 114.52 198.673 115.128 197.985 116.248V114.584H196.897V126.104H198.033V121.416C198.737 122.504 199.889 123.08 201.233 123.08C203.633 123.08 205.425 121.352 205.425 118.792C205.425 116.248 203.633 114.52 201.233 114.52ZM201.153 122.072C199.361 122.072 198.017 120.76 198.017 118.792C198.017 116.84 199.361 115.512 201.153 115.512C202.929 115.512 204.289 116.84 204.289 118.792C204.289 120.76 202.929 122.072 201.153 122.072ZM215.084 118.792C215.084 116.264 213.372 114.52 211.004 114.52C208.636 114.52 206.892 116.296 206.892 118.792C206.892 121.288 208.684 123.08 211.308 123.08C212.636 123.08 213.804 122.6 214.556 121.704L213.916 120.968C213.276 121.704 212.364 122.072 211.34 122.072C209.5 122.072 208.156 120.904 208.028 119.144H215.068C215.068 119.016 215.084 118.888 215.084 118.792ZM211.004 115.496C212.652 115.496 213.852 116.648 213.996 118.296H208.028C208.172 116.648 209.372 115.496 211.004 115.496ZM220.885 123.08C222.309 123.08 223.509 122.504 224.181 121.416L223.333 120.84C222.757 121.688 221.861 122.072 220.885 122.072C219.045 122.072 217.701 120.776 217.701 118.792C217.701 116.824 219.045 115.512 220.885 115.512C221.861 115.512 222.757 115.912 223.333 116.76L224.181 116.184C223.509 115.08 222.309 114.52 220.885 114.52C218.373 114.52 216.549 116.28 216.549 118.792C216.549 121.304 218.373 123.08 220.885 123.08ZM232.06 111.304H230.54L228.348 113.288H229.468L232.06 111.304ZM229.356 114.52C228.028 114.52 226.78 114.936 225.932 115.656L226.444 116.504C227.132 115.896 228.156 115.512 229.244 115.512C230.812 115.512 231.628 116.296 231.628 117.736V118.248H228.956C226.54 118.248 225.708 119.336 225.708 120.632C225.708 122.088 226.876 123.08 228.78 123.08C230.172 123.08 231.164 122.552 231.676 121.688V123H232.764V117.784C232.764 115.608 231.532 114.52 229.356 114.52ZM228.956 122.184C227.612 122.184 226.828 121.576 226.828 120.6C226.828 119.736 227.356 119.096 228.988 119.096H231.628V120.472C231.18 121.576 230.236 122.184 228.956 122.184ZM241.645 114.584L238.461 121.752L235.309 114.584H234.125L237.853 123H239.021L242.765 114.584H241.645ZM251.475 118.792C251.475 116.264 249.763 114.52 247.395 114.52C245.027 114.52 243.283 116.296 243.283 118.792C243.283 121.288 245.075 123.08 247.699 123.08C249.027 123.08 250.195 122.6 250.947 121.704L250.307 120.968C249.667 121.704 248.755 122.072 247.731 122.072C245.891 122.072 244.547 120.904 244.419 119.144H251.459C251.459 119.016 251.475 118.888 251.475 118.792ZM247.395 115.496C249.043 115.496 250.243 116.648 250.387 118.296H244.419C244.563 116.648 245.763 115.496 247.395 115.496ZM253.787 123H254.923V111.128H253.787V123ZM258.196 123.08C258.66 123.08 259.06 122.696 259.06 122.2C259.06 121.704 258.66 121.336 258.196 121.336C257.732 121.336 257.348 121.704 257.348 122.2C257.348 122.696 257.732 123.08 258.196 123.08ZM268.078 123H269.262V112.824H273.198V111.8H264.142V112.824H268.078V123ZM281.319 118.792C281.319 116.264 279.607 114.52 277.239 114.52C274.871 114.52 273.127 116.296 273.127 118.792C273.127 121.288 274.919 123.08 277.543 123.08C278.871 123.08 280.039 122.6 280.791 121.704L280.151 120.968C279.511 121.704 278.599 122.072 277.575 122.072C275.735 122.072 274.391 120.904 274.263 119.144H281.303C281.303 119.016 281.319 118.888 281.319 118.792ZM277.239 115.496C278.887 115.496 280.087 116.648 280.231 118.296H274.263C274.407 116.648 275.607 115.496 277.239 115.496ZM287.919 114.52C286.463 114.52 285.327 115.112 284.719 116.136V114.584H283.631V123H284.767V118.584C284.767 116.664 285.903 115.544 287.711 115.544C289.311 115.544 290.239 116.456 290.239 118.232V123H291.375V118.12C291.375 115.704 289.967 114.52 287.919 114.52ZM298.747 114.52C297.323 114.52 296.219 115.08 295.595 116.056V111.128H294.459V123H295.595V118.584C295.595 116.664 296.731 115.544 298.539 115.544C300.139 115.544 301.067 116.456 301.067 118.232V123H302.203V118.12C302.203 115.704 300.795 114.52 298.747 114.52ZM308.758 123.08C311.222 123.08 313.03 121.288 313.03 118.792C313.03 116.296 311.222 114.52 308.758 114.52C306.294 114.52 304.47 116.296 304.47 118.792C304.47 121.288 306.294 123.08 308.758 123.08ZM308.758 122.072C306.966 122.072 305.622 120.76 305.622 118.792C305.622 116.824 306.966 115.512 308.758 115.512C310.55 115.512 311.878 116.824 311.878 118.792C311.878 120.76 310.55 122.072 308.758 122.072ZM325.985 114.584V119C325.985 120.92 324.881 122.056 323.121 122.056C321.521 122.056 320.593 121.144 320.593 119.352V114.584H319.457V119.464C319.457 121.88 320.865 123.08 323.009 123.08C324.353 123.08 325.441 122.488 326.033 121.464V123H327.121V114.584H325.985ZM340.799 114.52C339.279 114.52 338.079 115.208 337.471 116.296C336.959 115.112 335.871 114.52 334.479 114.52C333.071 114.52 331.983 115.112 331.391 116.12V114.584H330.303V123H331.439V118.584C331.439 116.664 332.543 115.544 334.255 115.544C335.791 115.544 336.687 116.456 336.687 118.232V123H337.823V118.584C337.823 116.664 338.911 115.544 340.639 115.544C342.159 115.544 343.055 116.456 343.055 118.232V123H344.191V118.12C344.191 115.704 342.847 114.52 340.799 114.52ZM350.216 114.52C348.888 114.52 347.64 114.936 346.792 115.656L347.304 116.504C347.992 115.896 349.016 115.512 350.104 115.512C351.672 115.512 352.488 116.296 352.488 117.736V118.248H349.816C347.4 118.248 346.568 119.336 346.568 120.632C346.568 122.088 347.736 123.08 349.64 123.08C351.032 123.08 352.024 122.552 352.536 121.688V123H353.624V117.784C353.624 115.608 352.392 114.52 350.216 114.52ZM349.816 122.184C348.472 122.184 347.688 121.576 347.688 120.6C347.688 119.736 348.216 119.096 349.848 119.096H352.488V120.472C352.04 121.576 351.096 122.184 349.816 122.184ZM24.92 134.52C23.528 134.52 22.36 135.128 21.672 136.248V134.584H20.584V146.104H21.72V141.416C22.424 142.504 23.576 143.08 24.92 143.08C27.32 143.08 29.112 141.352 29.112 138.792C29.112 136.248 27.32 134.52 24.92 134.52ZM24.84 142.072C23.048 142.072 21.704 140.76 21.704 138.792C21.704 136.84 23.048 135.512 24.84 135.512C26.616 135.512 27.976 136.84 27.976 138.792C27.976 140.76 26.616 142.072 24.84 142.072ZM37.8758 134.584V139C37.8758 140.92 36.7718 142.056 35.0118 142.056C33.4118 142.056 32.4838 141.144 32.4838 139.352V134.584H31.3478V139.464C31.3478 141.88 32.7558 143.08 34.8998 143.08C36.2438 143.08 37.3318 142.488 37.9237 141.464V143H39.0118V134.584H37.8758ZM48.8974 134.584V136.2C48.1934 135.096 46.9774 134.52 45.5694 134.52C43.1694 134.52 41.3454 136.168 41.3454 138.584C41.3454 141 43.1694 142.68 45.5694 142.68C46.9454 142.68 48.1454 142.12 48.8494 141.048V142.12C48.8494 144.2 47.8734 145.176 45.7454 145.176C44.4494 145.176 43.2334 144.744 42.4334 144.024L41.8574 144.888C42.7374 145.72 44.2414 146.184 45.7774 146.184C48.5614 146.184 49.9854 144.872 49.9854 141.976V134.584H48.8974ZM45.6814 141.672C43.8254 141.672 42.4974 140.408 42.4974 138.584C42.4974 136.76 43.8254 135.512 45.6814 135.512C47.5374 135.512 48.8814 136.76 48.8814 138.584C48.8814 140.408 47.5374 141.672 45.6814 141.672ZM53.2901 141.336C52.8101 141.336 52.4421 141.704 52.4421 142.2C52.4421 142.616 52.6821 142.92 53.0181 143.016L52.4741 145.336H53.2421L53.9141 143.128C54.0741 142.68 54.1381 142.472 54.1381 142.2C54.1381 141.72 53.7861 141.336 53.2901 141.336ZM68.0843 138.792C68.0843 136.264 66.3723 134.52 64.0043 134.52C61.6363 134.52 59.8923 136.296 59.8923 138.792C59.8923 141.288 61.6843 143.08 64.3083 143.08C65.6363 143.08 66.8043 142.6 67.5563 141.704L66.9163 140.968C66.2763 141.704 65.3643 142.072 64.3403 142.072C62.5003 142.072 61.1562 140.904 61.0283 139.144H68.0683C68.0683 139.016 68.0843 138.888 68.0843 138.792ZM64.0043 135.496C65.6523 135.496 66.8523 136.648 66.9963 138.296H61.0283C61.1723 136.648 62.3723 135.496 64.0043 135.496ZM74.6845 134.52C73.2285 134.52 72.0925 135.112 71.4845 136.136V134.584H70.3965V143H71.5325V138.584C71.5325 136.664 72.6685 135.544 74.4765 135.544C76.0765 135.544 77.0045 136.456 77.0045 138.232V143H78.1405V138.12C78.1405 135.704 76.7325 134.52 74.6845 134.52ZM85.2566 141.672C84.9366 141.96 84.4726 142.104 84.0086 142.104C83.0646 142.104 82.5526 141.56 82.5526 140.568V135.544H85.1126V134.584H82.5526V132.744H81.4166V134.584H79.9126V135.544H81.4166V140.632C81.4166 142.184 82.2966 143.08 83.8806 143.08C84.5366 143.08 85.2086 142.888 85.6566 142.488L85.2566 141.672ZM89.6926 132.104C90.3326 132.104 90.7966 133.192 91.7886 133.192C92.6366 133.192 93.1966 132.504 93.2286 131.464H92.5406C92.5086 132.072 92.1886 132.456 91.7086 132.456C91.0846 132.456 90.6046 131.368 89.6126 131.368C88.7646 131.368 88.2046 132.056 88.1726 133.128H88.8606C88.8926 132.488 89.2126 132.104 89.6926 132.104ZM90.6686 134.52C89.3406 134.52 88.0926 134.936 87.2446 135.656L87.7566 136.504C88.4446 135.896 89.4686 135.512 90.5566 135.512C92.1246 135.512 92.9406 136.296 92.9406 137.736V138.248H90.2686C87.8526 138.248 87.0206 139.336 87.0206 140.632C87.0206 142.088 88.1886 143.08 90.0926 143.08C91.4846 143.08 92.4766 142.552 92.9886 141.688V143H94.0766V137.784C94.0766 135.608 92.8446 134.52 90.6686 134.52ZM90.2686 142.184C88.9246 142.184 88.1406 141.576 88.1406 140.6C88.1406 139.736 88.6686 139.096 90.3006 139.096H92.9406V140.472C92.4926 141.576 91.5486 142.184 90.2686 142.184ZM100.633 143.08C103.097 143.08 104.905 141.288 104.905 138.792C104.905 136.296 103.097 134.52 100.633 134.52C98.1694 134.52 96.3454 136.296 96.3454 138.792C96.3454 141.288 98.1694 143.08 100.633 143.08ZM100.633 142.072C98.8414 142.072 97.4974 140.76 97.4974 138.792C97.4974 136.824 98.8414 135.512 100.633 135.512C102.425 135.512 103.753 136.824 103.753 138.792C103.753 140.76 102.425 142.072 100.633 142.072ZM114.356 134.52C113.028 134.52 111.78 134.936 110.932 135.656L111.444 136.504C112.132 135.896 113.156 135.512 114.244 135.512C115.812 135.512 116.628 136.296 116.628 137.736V138.248H113.956C111.54 138.248 110.708 139.336 110.708 140.632C110.708 142.088 111.876 143.08 113.78 143.08C115.172 143.08 116.164 142.552 116.676 141.688V143H117.764V137.784C117.764 135.608 116.532 134.52 114.356 134.52ZM113.956 142.184C112.612 142.184 111.828 141.576 111.828 140.6C111.828 139.736 112.356 139.096 113.988 139.096H116.628V140.472C116.18 141.576 115.236 142.184 113.956 142.184ZM129.069 141.672C128.749 141.96 128.285 142.104 127.821 142.104C126.877 142.104 126.365 141.56 126.365 140.568V135.544H128.925V134.584H126.365V132.744H125.229V134.584H123.725V135.544H125.229V140.632C125.229 142.184 126.109 143.08 127.693 143.08C128.349 143.08 129.021 142.888 129.469 142.488L129.069 141.672ZM134.481 134.52C133.153 134.52 131.905 134.936 131.057 135.656L131.569 136.504C132.257 135.896 133.281 135.512 134.369 135.512C135.937 135.512 136.753 136.296 136.753 137.736V138.248H134.081C131.665 138.248 130.833 139.336 130.833 140.632C130.833 142.088 132.001 143.08 133.905 143.08C135.297 143.08 136.289 142.552 136.801 141.688V143H137.889V137.784C137.889 135.608 136.657 134.52 134.481 134.52ZM134.081 142.184C132.737 142.184 131.953 141.576 131.953 140.6C131.953 139.736 132.481 139.096 134.113 139.096H136.753V140.472C136.305 141.576 135.361 142.184 134.081 142.184ZM142.063 136.232V134.584H140.975V143H142.111V138.712C142.111 136.728 143.183 135.608 144.943 135.608C145.023 135.608 145.119 135.624 145.215 135.624V134.52C143.663 134.52 142.591 135.112 142.063 136.232ZM154.537 138.792C154.537 136.264 152.825 134.52 150.457 134.52C148.089 134.52 146.345 136.296 146.345 138.792C146.345 141.288 148.137 143.08 150.761 143.08C152.089 143.08 153.257 142.6 154.009 141.704L153.369 140.968C152.729 141.704 151.817 142.072 150.793 142.072C148.953 142.072 147.609 140.904 147.481 139.144H154.521C154.521 139.016 154.537 138.888 154.537 138.792ZM150.457 135.496C152.105 135.496 153.305 136.648 153.449 138.296H147.481C147.625 136.648 148.825 135.496 150.457 135.496ZM159.634 132.008C160.114 132.008 160.562 132.152 160.882 132.424L161.266 131.576C160.85 131.224 160.21 131.048 159.586 131.048C157.938 131.048 157.042 132.04 157.042 133.544V134.584H155.538V135.544H157.042V143H158.178V135.544H160.738V134.584H158.146V133.592C158.146 132.552 158.658 132.008 159.634 132.008ZM165.059 134.52C163.731 134.52 162.483 134.936 161.635 135.656L162.147 136.504C162.835 135.896 163.859 135.512 164.947 135.512C166.515 135.512 167.331 136.296 167.331 137.736V138.248H164.659C162.243 138.248 161.411 139.336 161.411 140.632C161.411 142.088 162.579 143.08 164.483 143.08C165.875 143.08 166.867 142.552 167.379 141.688V143H168.467V137.784C168.467 135.608 167.235 134.52 165.059 134.52ZM164.659 142.184C163.315 142.184 162.531 141.576 162.531 140.6C162.531 139.736 163.059 139.096 164.691 139.096H167.331V140.472C166.883 141.576 165.939 142.184 164.659 142.184ZM180.028 134.52C178.572 134.52 177.436 135.112 176.828 136.136V134.584H175.74V143H176.876V138.584C176.876 136.664 178.012 135.544 179.82 135.544C181.42 135.544 182.348 136.456 182.348 138.232V143H183.484V138.12C183.484 135.704 182.076 134.52 180.028 134.52ZM188.536 132.104C189.176 132.104 189.64 133.192 190.632 133.192C191.48 133.192 192.04 132.504 192.072 131.464H191.384C191.352 132.072 191.032 132.456 190.552 132.456C189.928 132.456 189.448 131.368 188.456 131.368C187.608 131.368 187.048 132.056 187.016 133.128H187.704C187.736 132.488 188.056 132.104 188.536 132.104ZM189.512 134.52C188.184 134.52 186.936 134.936 186.088 135.656L186.6 136.504C187.288 135.896 188.312 135.512 189.4 135.512C190.968 135.512 191.784 136.296 191.784 137.736V138.248H189.112C186.696 138.248 185.864 139.336 185.864 140.632C185.864 142.088 187.032 143.08 188.936 143.08C190.328 143.08 191.32 142.552 191.832 141.688V143H192.92V137.784C192.92 135.608 191.688 134.52 189.512 134.52ZM189.112 142.184C187.768 142.184 186.984 141.576 186.984 140.6C186.984 139.736 187.512 139.096 189.144 139.096H191.784V140.472C191.336 141.576 190.392 142.184 189.112 142.184ZM199.477 143.08C201.941 143.08 203.749 141.288 203.749 138.792C203.749 136.296 201.941 134.52 199.477 134.52C197.013 134.52 195.189 136.296 195.189 138.792C195.189 141.288 197.013 143.08 199.477 143.08ZM199.477 142.072C197.685 142.072 196.341 140.76 196.341 138.792C196.341 136.824 197.685 135.512 199.477 135.512C201.269 135.512 202.597 136.824 202.597 138.792C202.597 140.76 201.269 142.072 199.477 142.072ZM213.04 132.008C213.52 132.008 213.968 132.152 214.288 132.424L214.672 131.576C214.256 131.224 213.616 131.048 212.992 131.048C211.344 131.048 210.448 132.04 210.448 133.544V134.584H208.944V135.544H210.448V143H211.584V135.544H214.144V134.584H211.552V133.592C211.552 132.552 212.064 132.008 213.04 132.008ZM218.977 143.08C221.441 143.08 223.249 141.288 223.249 138.792C223.249 136.296 221.441 134.52 218.977 134.52C216.513 134.52 214.689 136.296 214.689 138.792C214.689 141.288 216.513 143.08 218.977 143.08ZM218.977 142.072C217.185 142.072 215.841 140.76 215.841 138.792C215.841 136.824 217.185 135.512 218.977 135.512C220.769 135.512 222.097 136.824 222.097 138.792C222.097 140.76 220.769 142.072 218.977 142.072ZM226.144 132.744C226.624 132.744 226.976 132.376 226.976 131.912C226.976 131.48 226.608 131.128 226.144 131.128C225.68 131.128 225.312 131.496 225.312 131.928C225.312 132.376 225.68 132.744 226.144 132.744ZM225.568 143H226.704V134.584H225.568V143ZM236.837 132.008C237.317 132.008 237.765 132.152 238.085 132.424L238.469 131.576C238.053 131.224 237.413 131.048 236.789 131.048C235.141 131.048 234.245 132.04 234.245 133.544V134.584H232.741V135.544H234.245V143H235.381V135.544H237.941V134.584H235.349V133.592C235.349 132.552 235.861 132.008 236.837 132.008ZM244.966 131.304H243.446L241.254 133.288H242.374L244.966 131.304ZM242.262 134.52C240.934 134.52 239.686 134.936 238.838 135.656L239.35 136.504C240.038 135.896 241.062 135.512 242.15 135.512C243.718 135.512 244.534 136.296 244.534 137.736V138.248H241.862C239.446 138.248 238.614 139.336 238.614 140.632C238.614 142.088 239.782 143.08 241.686 143.08C243.078 143.08 244.07 142.552 244.582 141.688V143H245.67V137.784C245.67 135.608 244.438 134.52 242.262 134.52ZM241.862 142.184C240.518 142.184 239.734 141.576 239.734 140.6C239.734 139.736 240.262 139.096 241.894 139.096H244.534V140.472C244.086 141.576 243.142 142.184 241.862 142.184ZM252.275 143.08C253.699 143.08 254.899 142.504 255.571 141.416L254.723 140.84C254.147 141.688 253.251 142.072 252.275 142.072C250.435 142.072 249.091 140.776 249.091 138.792C249.091 136.824 250.435 135.512 252.275 135.512C253.251 135.512 254.147 135.912 254.723 136.76L255.571 136.184C254.899 135.08 253.699 134.52 252.275 134.52C249.763 134.52 247.939 136.28 247.939 138.792C247.939 141.304 249.763 143.08 252.275 143.08ZM258.379 132.744C258.859 132.744 259.211 132.376 259.211 131.912C259.211 131.48 258.843 131.128 258.379 131.128C257.915 131.128 257.547 131.496 257.547 131.928C257.547 132.376 257.915 132.744 258.379 132.744ZM257.803 143H258.939V134.584H257.803V143ZM262.1 143H263.236V131.128H262.1V143ZM266.525 141.336C266.045 141.336 265.677 141.704 265.677 142.2C265.677 142.616 265.917 142.92 266.253 143.016L265.709 145.336H266.477L267.149 143.128C267.309 142.68 267.373 142.472 267.373 142.2C267.373 141.72 267.021 141.336 266.525 141.336ZM281.319 138.792C281.319 136.264 279.607 134.52 277.239 134.52C274.871 134.52 273.127 136.296 273.127 138.792C273.127 141.288 274.919 143.08 277.543 143.08C278.871 143.08 280.039 142.6 280.791 141.704L280.151 140.968C279.511 141.704 278.599 142.072 277.575 142.072C275.735 142.072 274.391 140.904 274.263 139.144H281.303C281.303 139.016 281.319 138.888 281.319 138.792ZM277.239 135.496C278.887 135.496 280.087 136.648 280.231 138.296H274.263C274.407 136.648 275.607 135.496 277.239 135.496ZM290.762 134.52C289.434 134.52 288.186 134.936 287.338 135.656L287.85 136.504C288.538 135.896 289.562 135.512 290.65 135.512C292.218 135.512 293.034 136.296 293.034 137.736V138.248H290.362C287.946 138.248 287.114 139.336 287.114 140.632C287.114 142.088 288.282 143.08 290.186 143.08C291.578 143.08 292.57 142.552 293.082 141.688V143H294.17V137.784C294.17 135.608 292.938 134.52 290.762 134.52ZM290.362 142.184C289.018 142.184 288.234 141.576 288.234 140.6C288.234 139.736 288.762 139.096 290.394 139.096H293.034V140.472C292.586 141.576 291.642 142.184 290.362 142.184ZM301.288 141.672C300.968 141.96 300.504 142.104 300.04 142.104C299.096 142.104 298.584 141.56 298.584 140.568V135.544H301.144V134.584H298.584V132.744H297.448V134.584H295.944V135.544H297.448V140.632C297.448 142.184 298.328 143.08 299.912 143.08C300.568 143.08 301.24 142.888 301.688 142.488L301.288 141.672ZM310.803 138.792C310.803 136.264 309.091 134.52 306.723 134.52C304.355 134.52 302.611 136.296 302.611 138.792C302.611 141.288 304.403 143.08 307.027 143.08C308.355 143.08 309.523 142.6 310.275 141.704L309.635 140.968C308.995 141.704 308.083 142.072 307.059 142.072C305.219 142.072 303.875 140.904 303.747 139.144H310.787C310.787 139.016 310.803 138.888 310.803 138.792ZM306.723 135.496C308.371 135.496 309.571 136.648 309.715 138.296H303.747C303.891 136.648 305.091 135.496 306.723 135.496ZM317.403 134.52C315.947 134.52 314.811 135.112 314.203 136.136V134.584H313.115V143H314.251V138.584C314.251 136.664 315.387 135.544 317.195 135.544C318.795 135.544 319.723 136.456 319.723 138.232V143H320.859V138.12C320.859 135.704 319.451 134.52 317.403 134.52ZM330.519 131.128V136.184C329.815 135.096 328.663 134.52 327.319 134.52C324.919 134.52 323.127 136.248 323.127 138.792C323.127 141.336 324.919 143.08 327.319 143.08C328.711 143.08 329.879 142.472 330.567 141.336V143H331.655V131.128H330.519ZM327.415 142.072C325.623 142.072 324.279 140.76 324.279 138.792C324.279 136.824 325.623 135.512 327.415 135.512C329.191 135.512 330.535 136.824 330.535 138.792C330.535 140.76 329.191 142.072 327.415 142.072ZM342.162 138.792C342.162 136.264 340.45 134.52 338.082 134.52C335.714 134.52 333.97 136.296 333.97 138.792C333.97 141.288 335.762 143.08 338.386 143.08C339.714 143.08 340.882 142.6 341.634 141.704L340.994 140.968C340.354 141.704 339.442 142.072 338.418 142.072C336.578 142.072 335.234 140.904 335.106 139.144H342.146C342.146 139.016 342.162 138.888 342.162 138.792ZM338.082 135.496C339.73 135.496 340.93 136.648 341.074 138.296H335.106C335.25 136.648 336.45 135.496 338.082 135.496ZM345.563 136.232V134.584H344.475V143H345.611V138.712C345.611 136.728 346.683 135.608 348.443 135.608C348.523 135.608 348.619 135.624 348.715 135.624V134.52C347.163 134.52 346.091 135.112 345.563 136.232ZM353.7 134.52C352.372 134.52 351.124 134.936 350.276 135.656L350.788 136.504C351.476 135.896 352.5 135.512 353.588 135.512C355.156 135.512 355.972 136.296 355.972 137.736V138.248H353.3C350.884 138.248 350.052 139.336 350.052 140.632C350.052 142.088 351.22 143.08 353.124 143.08C354.516 143.08 355.508 142.552 356.02 141.688V143H357.108V137.784C357.108 135.608 355.876 134.52 353.7 134.52ZM353.3 142.184C351.956 142.184 351.172 141.576 351.172 140.6C351.172 139.736 351.7 139.096 353.332 139.096H355.972V140.472C355.524 141.576 354.58 142.184 353.3 142.184ZM370.689 134.52C369.169 134.52 367.969 135.208 367.361 136.296C366.849 135.112 365.761 134.52 364.369 134.52C362.961 134.52 361.873 135.112 361.281 136.12V134.584H360.193V143H361.329V138.584C361.329 136.664 362.433 135.544 364.145 135.544C365.681 135.544 366.577 136.456 366.577 138.232V143H367.713V138.584C367.713 136.664 368.801 135.544 370.529 135.544C372.049 135.544 372.945 136.456 372.945 138.232V143H374.081V138.12C374.081 135.704 372.737 134.52 370.689 134.52ZM27.928 158.792C27.928 156.264 26.216 154.52 23.848 154.52C21.48 154.52 19.736 156.296 19.736 158.792C19.736 161.288 21.528 163.08 24.152 163.08C25.48 163.08 26.648 162.6 27.4 161.704L26.76 160.968C26.12 161.704 25.208 162.072 24.184 162.072C22.344 162.072 21 160.904 20.872 159.144H27.912C27.912 159.016 27.928 158.888 27.928 158.792ZM23.848 155.496C25.496 155.496 26.696 156.648 26.84 158.296H20.872C21.016 156.648 22.216 155.496 23.848 155.496ZM36.6619 163L33.3019 158.68L36.4699 154.584H35.2219L32.6939 157.88L30.1659 154.584H28.8859L32.0539 158.68L28.7259 163H30.0059L32.6939 159.48L35.3659 163H36.6619ZM41.7439 163.08C43.1679 163.08 44.3679 162.504 45.0399 161.416L44.1919 160.84C43.6159 161.688 42.7199 162.072 41.7439 162.072C39.9039 162.072 38.5599 160.776 38.5599 158.792C38.5599 156.824 39.9039 155.512 41.7439 155.512C42.7199 155.512 43.6159 155.912 44.1919 156.76L45.0399 156.184C44.3679 155.08 43.1679 154.52 41.7439 154.52C39.2319 154.52 37.4079 156.28 37.4079 158.792C37.4079 161.304 39.2319 163.08 41.7439 163.08ZM54.4749 158.792C54.4749 156.264 52.7629 154.52 50.3949 154.52C48.0269 154.52 46.2829 156.296 46.2829 158.792C46.2829 161.288 48.0749 163.08 50.6989 163.08C52.0269 163.08 53.1949 162.6 53.9469 161.704L53.3069 160.968C52.6669 161.704 51.7549 162.072 50.7309 162.072C48.8909 162.072 47.5469 160.904 47.4189 159.144H54.4589C54.4589 159.016 54.4749 158.888 54.4749 158.792ZM50.3949 155.496C52.0429 155.496 53.2429 156.648 53.3869 158.296H47.4189C47.5629 156.648 48.7629 155.496 50.3949 155.496ZM61.1231 154.52C59.7311 154.52 58.5631 155.128 57.8751 156.248V154.584H56.7871V166.104H57.9231V161.416C58.6271 162.504 59.7791 163.08 61.1231 163.08C63.5231 163.08 65.3151 161.352 65.3151 158.792C65.3151 156.248 63.5231 154.52 61.1231 154.52ZM61.0431 162.072C59.2511 162.072 57.9071 160.76 57.9071 158.792C57.9071 156.84 59.2511 155.512 61.0431 155.512C62.8191 155.512 64.1791 156.84 64.1791 158.792C64.1791 160.76 62.8191 162.072 61.0431 162.072ZM71.1189 163.08C72.5429 163.08 73.7429 162.504 74.4149 161.416L73.5669 160.84C72.9909 161.688 72.0949 162.072 71.1189 162.072C69.2789 162.072 67.9349 160.776 67.9349 158.792C67.9349 156.824 69.2789 155.512 71.1189 155.512C72.0949 155.512 72.9909 155.912 73.5669 156.76L74.4149 156.184C73.7429 155.08 72.5429 154.52 71.1189 154.52C68.6069 154.52 66.7829 156.28 66.7829 158.792C66.7829 161.304 68.6069 163.08 71.1189 163.08ZM77.2225 152.744C77.7025 152.744 78.0545 152.376 78.0545 151.912C78.0545 151.48 77.6865 151.128 77.2225 151.128C76.7585 151.128 76.3905 151.496 76.3905 151.928C76.3905 152.376 76.7585 152.744 77.2225 152.744ZM76.6465 163H77.7825V154.584H76.6465V163ZM84.3834 163.08C86.8474 163.08 88.6554 161.288 88.6554 158.792C88.6554 156.296 86.8474 154.52 84.3834 154.52C81.9194 154.52 80.0954 156.296 80.0954 158.792C80.0954 161.288 81.9194 163.08 84.3834 163.08ZM84.3834 162.072C82.5914 162.072 81.2474 160.76 81.2474 158.792C81.2474 156.824 82.5914 155.512 84.3834 155.512C86.1754 155.512 87.5034 156.824 87.5034 158.792C87.5034 160.76 86.1754 162.072 84.3834 162.072ZM95.2626 154.52C93.8066 154.52 92.6706 155.112 92.0626 156.136V154.584H90.9746V163H92.1106V158.584C92.1106 156.664 93.2466 155.544 95.0546 155.544C96.6546 155.544 97.5826 156.456 97.5826 158.232V163H98.7186V158.12C98.7186 155.704 97.3106 154.52 95.2626 154.52ZM104.747 154.52C103.419 154.52 102.171 154.936 101.323 155.656L101.835 156.504C102.523 155.896 103.547 155.512 104.635 155.512C106.203 155.512 107.019 156.296 107.019 157.736V158.248H104.347C101.931 158.248 101.099 159.336 101.099 160.632C101.099 162.088 102.267 163.08 104.171 163.08C105.563 163.08 106.555 162.552 107.067 161.688V163H108.155V157.784C108.155 155.608 106.923 154.52 104.747 154.52ZM104.347 162.184C103.003 162.184 102.219 161.576 102.219 160.6C102.219 159.736 102.747 159.096 104.379 159.096H107.019V160.472C106.571 161.576 105.627 162.184 104.347 162.184ZM111.24 163H112.376V151.128H111.24V163ZM126.033 154.52C124.513 154.52 123.313 155.208 122.705 156.296C122.193 155.112 121.105 154.52 119.713 154.52C118.305 154.52 117.217 155.112 116.625 156.12V154.584H115.537V163H116.673V158.584C116.673 156.664 117.777 155.544 119.489 155.544C121.025 155.544 121.921 156.456 121.921 158.232V163H123.057V158.584C123.057 156.664 124.145 155.544 125.873 155.544C127.393 155.544 128.289 156.456 128.289 158.232V163H129.425V158.12C129.425 155.704 128.081 154.52 126.033 154.52ZM139.881 158.792C139.881 156.264 138.169 154.52 135.801 154.52C133.433 154.52 131.689 156.296 131.689 158.792C131.689 161.288 133.481 163.08 136.105 163.08C137.433 163.08 138.601 162.6 139.353 161.704L138.713 160.968C138.073 161.704 137.161 162.072 136.137 162.072C134.297 162.072 132.953 160.904 132.825 159.144H139.865C139.865 159.016 139.881 158.888 139.881 158.792ZM135.801 155.496C137.449 155.496 138.649 156.648 138.793 158.296H132.825C132.969 156.648 134.169 155.496 135.801 155.496ZM146.481 154.52C145.025 154.52 143.889 155.112 143.281 156.136V154.584H142.193V163H143.329V158.584C143.329 156.664 144.465 155.544 146.273 155.544C147.873 155.544 148.801 156.456 148.801 158.232V163H149.937V158.12C149.937 155.704 148.529 154.52 146.481 154.52ZM157.054 161.672C156.734 161.96 156.27 162.104 155.806 162.104C154.862 162.104 154.35 161.56 154.35 160.568V155.544H156.91V154.584H154.35V152.744H153.214V154.584H151.71V155.544H153.214V160.632C153.214 162.184 154.094 163.08 155.678 163.08C156.334 163.08 157.006 162.888 157.454 162.488L157.054 161.672ZM166.569 158.792C166.569 156.264 164.857 154.52 162.489 154.52C160.121 154.52 158.377 156.296 158.377 158.792C158.377 161.288 160.169 163.08 162.793 163.08C164.121 163.08 165.289 162.6 166.041 161.704L165.401 160.968C164.761 161.704 163.849 162.072 162.825 162.072C160.985 162.072 159.641 160.904 159.513 159.144H166.553C166.553 159.016 166.569 158.888 166.569 158.792ZM162.489 155.496C164.137 155.496 165.337 156.648 165.481 158.296H159.513C159.657 156.648 160.857 155.496 162.489 155.496ZM177.404 154.52C176.06 154.52 174.908 155.096 174.204 156.184V151.128H173.068V163H174.156V161.336C174.844 162.472 176.012 163.08 177.404 163.08C179.804 163.08 181.596 161.336 181.596 158.792C181.596 156.248 179.804 154.52 177.404 154.52ZM177.324 162.072C175.532 162.072 174.188 160.76 174.188 158.792C174.188 156.824 175.532 155.512 177.324 155.512C179.1 155.512 180.46 156.824 180.46 158.792C180.46 160.76 179.1 162.072 177.324 162.072ZM191.256 158.792C191.256 156.264 189.544 154.52 187.176 154.52C184.808 154.52 183.064 156.296 183.064 158.792C183.064 161.288 184.856 163.08 187.48 163.08C188.808 163.08 189.976 162.6 190.728 161.704L190.088 160.968C189.448 161.704 188.536 162.072 187.512 162.072C185.672 162.072 184.328 160.904 184.2 159.144H191.24C191.24 159.016 191.256 158.888 191.256 158.792ZM187.176 155.496C188.824 155.496 190.024 156.648 190.168 158.296H184.2C184.344 156.648 185.544 155.496 187.176 155.496ZM204.064 154.52C202.544 154.52 201.344 155.208 200.736 156.296C200.224 155.112 199.136 154.52 197.744 154.52C196.336 154.52 195.248 155.112 194.656 156.12V154.584H193.568V163H194.704V158.584C194.704 156.664 195.808 155.544 197.52 155.544C199.056 155.544 199.952 156.456 199.952 158.232V163H201.088V158.584C201.088 156.664 202.176 155.544 203.904 155.544C205.424 155.544 206.32 156.456 206.32 158.232V163H207.456V158.12C207.456 155.704 206.112 154.52 204.064 154.52ZM210.585 159.64H211.465L211.705 151.8H210.361L210.585 159.64ZM211.033 163.08C211.513 163.08 211.865 162.696 211.865 162.248C211.865 161.784 211.513 161.432 211.033 161.432C210.553 161.432 210.185 161.784 210.185 162.248C210.185 162.696 210.553 163.08 211.033 163.08Z" fill="#141E39"/>
<path d="M307.811 168.059V168.827H309.791V176.459H310.655V168.059H307.811ZM319.803 173.483H318.123V171.539H317.283V173.483H313.635L317.931 168.059H316.971L312.519 173.627V174.251H317.259V176.459H318.123V174.251H319.803V173.483ZM320.012 177.659H320.792L324.752 166.355H323.972L320.012 177.659ZM324.803 168.059V168.827H326.783V176.459H327.647V168.059H324.803ZM329.139 168.059V168.827H331.119V176.459H331.983V168.059H329.139ZM333.067 177.659H333.847L337.807 166.355H337.027L333.067 177.659ZM339.126 175.691L341.982 172.883C343.11 171.779 343.362 171.059 343.362 170.255C343.362 168.851 342.282 167.987 340.578 167.987C339.294 167.987 338.25 168.419 337.602 169.187L338.214 169.715C338.766 169.079 339.522 168.779 340.506 168.779C341.79 168.779 342.474 169.379 342.474 170.351C342.474 170.927 342.294 171.491 341.346 172.427L337.854 175.847V176.459H343.746V175.691H339.126ZM348.132 176.531C350.076 176.531 351.492 174.935 351.492 172.259C351.492 169.583 350.076 167.987 348.132 167.987C346.188 167.987 344.784 169.583 344.784 172.259C344.784 174.935 346.188 176.531 348.132 176.531ZM348.132 175.739C346.668 175.739 345.66 174.503 345.66 172.259C345.66 170.015 346.668 168.779 348.132 168.779C349.596 168.779 350.604 170.015 350.604 172.259C350.604 174.503 349.596 175.739 348.132 175.739ZM353.822 175.691L356.678 172.883C357.806 171.779 358.058 171.059 358.058 170.255C358.058 168.851 356.978 167.987 355.274 167.987C353.99 167.987 352.946 168.419 352.298 169.187L352.91 169.715C353.462 169.079 354.218 168.779 355.202 168.779C356.486 168.779 357.17 169.379 357.17 170.351C357.17 170.927 356.99 171.491 356.042 172.427L352.55 175.847V176.459H358.442V175.691H353.822ZM360.642 175.691L363.498 172.883C364.626 171.779 364.878 171.059 364.878 170.255C364.878 168.851 363.798 167.987 362.094 167.987C360.81 167.987 359.766 168.419 359.118 169.187L359.73 169.715C360.282 169.079 361.038 168.779 362.022 168.779C363.306 168.779 363.99 169.379 363.99 170.351C363.99 170.927 363.81 171.491 362.862 172.427L359.37 175.847V176.459H365.262V175.691H360.642Z" fill="#141E39"/>
<rect x="278" y="20" width="114" height="21" rx="10.5" fill="white"/>
<path d="M292.966 37.5675L294.284 31.8716L289.865 28.0405L295.703 27.5337L297.973 22.1621L300.243 27.5337L306.081 28.0405L301.662 31.8716L302.98 37.5675L297.973 34.5472L292.966 37.5675Z" fill="#61B3FB"/>
<path d="M312.426 37.5675L313.743 31.8716L309.324 28.0405L315.162 27.5337L317.432 22.1621L319.703 27.5337L325.541 28.0405L321.122 31.8716L322.439 37.5675L317.432 34.5472L312.426 37.5675Z" fill="#61B3FB"/>
<path d="M331.885 37.5675L333.203 31.8716L328.784 28.0405L334.622 27.5337L336.892 22.1621L339.162 27.5337L345 28.0405L340.581 31.8716L341.899 37.5675L336.892 34.5472L331.885 37.5675Z" fill="#61B3FB"/>
<path d="M351.345 37.5675L352.662 31.8716L348.243 28.0405L354.081 27.5337L356.351 22.1621L358.622 27.5337L364.459 28.0405L360.04 31.8716L361.358 37.5675L356.351 34.5472L351.345 37.5675Z" fill="#61B3FB"/>
<path d="M370.804 37.5675L372.122 31.8716L367.703 28.0405L373.54 27.5337L375.811 22.1621L378.081 27.5337L383.919 28.0405L379.5 31.8716L380.818 37.5675L375.811 34.5472L370.804 37.5675Z" fill="#61B3FB"/>
</svg>
