<svg width="119" height="124" viewBox="0 0 119 124" fill="none" xmlns="http://www.w3.org/2000/svg">
<g clip-path="url(#clip0_433_462)">
<mask id="mask0_433_462" style="mask-type:luminance" maskUnits="userSpaceOnUse" x="0" y="8" width="77" height="89">
<path d="M76.2926 24.7346L20.2089 8.91895L-1.08665e-05 80.5814L56.0836 96.3971L76.2926 24.7346Z" fill="white"/>
</mask>
<g mask="url(#mask0_433_462)">
<path d="M28.034 88.3958C28.6669 84.0934 29.5918 79.8048 29.8665 75.4812C30.2833 68.8375 29.1311 62.3099 25.8922 56.4824C23.6775 52.4715 19.7202 49.9987 15.7832 47.7369C14.1161 46.7879 12.3728 45.9884 10.0821 44.8294C12.0126 44.8037 13.3696 44.6733 14.7136 44.7901C27.5933 45.9708 35.3447 41.4866 42.0446 30.4805C44.6459 26.2201 47.1415 21.85 48.3983 16.8684C48.7515 19.7728 48.1201 22.5365 47.8168 25.347C46.9342 33.7635 46.7737 42.1214 51.7493 49.5789C53.9967 52.9491 57.2023 55.1415 60.8801 56.7487C62.7846 57.5822 64.6008 58.6075 66.462 59.5542C66.0124 60.1799 65.4115 60.0105 64.8276 59.9826C60.5414 59.7659 56.3297 60.3341 52.0911 60.9174C47.6042 61.5334 44.5596 64.4603 41.4408 67.2065C36.2823 71.7378 32.924 77.4722 30.7099 83.9512C30.1504 85.5721 29.2882 87.0962 28.5735 88.662C28.3927 88.5768 28.2013 88.4886 28.0175 88.4139M52.6071 56.7873C47.1867 52.6021 44.2709 45.5887 43.5451 35.1679C38.6764 41.5368 33.5521 47.4801 24.6539 48.3229C28.0747 51.568 29.3478 55.6896 30.7637 59.7489C32.1704 63.7599 32.6281 67.9481 32.9942 72.1788C37.4024 64.2548 43.3884 58.6457 52.6071 56.7873Z" fill="white"/>
</g>
</g>
<g clip-path="url(#clip1_433_462)">
<mask id="mask1_433_462" style="mask-type:luminance" maskUnits="userSpaceOnUse" x="60" y="0" width="59" height="68">
<path d="M118.842 12.879L76.1004 0.825684L60.6989 55.4405L103.441 67.4939L118.842 12.879Z" fill="white"/>
</mask>
<g mask="url(#mask1_433_462)">
<path d="M82.064 61.396C82.5463 58.1171 83.2512 54.8487 83.4605 51.5536C83.7782 46.4904 82.9001 41.5156 80.4317 37.0744C78.7438 34.0176 75.728 32.1331 72.7275 30.4093C71.457 29.6861 70.1284 29.0768 68.3826 28.1935C69.8539 28.1739 70.888 28.0745 71.9124 28.1635C81.7281 29.0633 87.6356 25.6459 92.7417 17.258C94.7241 14.0111 96.626 10.6806 97.5839 6.88407C97.853 9.09757 97.3718 11.2038 97.1407 13.3457C96.4681 19.76 96.3457 26.1297 100.138 31.8131C101.851 34.3816 104.294 36.0525 107.096 37.2774C108.548 37.9126 109.932 38.694 111.35 39.4155C111.008 39.8923 110.55 39.7632 110.105 39.742C106.838 39.5768 103.629 40.0098 100.398 40.4544C96.9787 40.9239 94.6584 43.1544 92.2815 45.2474C88.3501 48.7007 85.7907 53.071 84.1034 58.0087C83.6769 59.244 83.0198 60.4056 82.4751 61.5988C82.3373 61.5339 82.1915 61.4667 82.0514 61.4098M100.791 37.3068C96.6605 34.1172 94.4384 28.7721 93.8852 20.8304C90.1747 25.6842 86.2694 30.2136 79.488 30.856C82.095 33.3291 83.0653 36.4702 84.1443 39.5638C85.2164 42.6207 85.5652 45.8125 85.8442 49.0368C89.2038 42.9978 93.7658 38.7231 100.791 37.3068Z" fill="white"/>
</g>
</g>
<g clip-path="url(#clip2_433_462)">
<mask id="mask2_433_462" style="mask-type:luminance" maskUnits="userSpaceOnUse" x="44" y="74" width="44" height="50">
<path d="M87.0894 83.2783L55.8674 74.4736L44.6169 114.368L75.839 123.173L87.0894 83.2783Z" fill="white"/>
</mask>
<g mask="url(#mask2_433_462)">
<path d="M60.2236 118.719C60.576 116.324 61.0909 113.936 61.2438 111.529C61.4758 107.831 60.8344 104.197 59.0313 100.952C57.7983 98.7196 55.5953 97.343 53.4035 96.0838C52.4755 95.5555 51.5049 95.1104 50.2297 94.4652C51.3045 94.4509 52.0599 94.3783 52.8081 94.4433C59.9783 95.1006 64.2935 92.6042 68.0234 86.4771C69.4716 84.1053 70.8609 81.6724 71.5606 78.8991C71.7572 80.5161 71.4057 82.0546 71.2368 83.6192C70.7455 88.3047 70.6561 92.9576 73.4261 97.1092C74.6772 98.9855 76.4618 100.206 78.5093 101.101C79.5695 101.565 80.5806 102.136 81.6167 102.663C81.3664 103.011 81.0319 102.917 80.7068 102.901C78.3207 102.78 75.976 103.097 73.6163 103.421C71.1185 103.764 69.4235 105.394 67.6873 106.923C64.8155 109.445 62.9459 112.638 61.7133 116.244C61.4019 117.147 60.9218 117.995 60.524 118.867C60.4233 118.82 60.3168 118.77 60.2145 118.729M73.9036 101.122C70.886 98.7923 69.2628 94.8879 68.8588 89.0866C66.1483 92.6322 63.2956 95.9408 58.3419 96.4101C60.2463 98.2166 60.9551 100.511 61.7433 102.771C62.5264 105.004 62.7812 107.335 62.985 109.691C65.4391 105.279 68.7715 102.157 73.9036 101.122Z" fill="white"/>
</g>
</g>
<defs>
<clipPath id="clip0_433_462">
<rect width="58.271" height="74.4574" fill="white" transform="translate(20.2089 8.91895) rotate(15.7485)"/>
</clipPath>
<clipPath id="clip1_433_462">
<rect width="44.4091" height="56.7449" fill="white" transform="translate(76.1004 0.825684) rotate(15.7485)"/>
</clipPath>
<clipPath id="clip2_433_462">
<rect width="32.4398" height="41.4508" fill="white" transform="translate(55.8674 74.4736) rotate(15.7485)"/>
</clipPath>
</defs>
</svg>
