<svg width="141" height="121" viewBox="0 0 141 121" fill="none" xmlns="http://www.w3.org/2000/svg">
<circle cx="40.5" cy="80.5" r="40" fill="white" stroke="#141E39"/>
<circle cx="110.5" cy="30.5" r="30" fill="white" stroke="#141E39"/>
<g clip-path="url(#clip0_469_82)">
<mask id="mask0_469_82" style="mask-type:luminance" maskUnits="userSpaceOnUse" x="15" y="45" width="53" height="68">
<path d="M68 45H15V113H68V45Z" fill="white"/>
</mask>
<g mask="url(#mask0_469_82)">
<path d="M41.4701 112.92C40.962 108.981 40.713 104.982 39.8861 101.114C38.6109 95.1707 35.9908 89.7187 31.7169 85.3991C28.788 82.4226 24.7133 81.2299 20.7085 80.2177C19.0148 79.7968 17.2914 79.5262 15 79.0752C16.6836 78.5741 17.8393 78.1231 19.0447 77.8926C30.6111 75.7378 36.2897 69.8749 39.4378 58.5399C40.6632 54.1502 41.769 49.6903 41.6395 45C42.6656 47.4654 42.7951 50.0511 43.2235 52.5968C44.5286 60.2136 46.4513 67.5999 52.6479 72.9216C55.4474 75.3269 58.7947 76.4594 62.4111 76.9605C64.284 77.2211 66.1271 77.6721 67.99 78.0429C67.7509 78.7044 67.1831 78.7043 66.665 78.8246C62.8594 79.6965 59.3128 81.2399 55.7462 82.8034C51.9705 84.457 50.0278 87.7844 47.9756 90.9714C44.5784 96.233 43.0541 102.106 42.7154 108.35C42.6258 109.913 42.2472 111.467 42.0081 113.02C41.8288 112.99 41.6395 112.96 41.4601 112.94M55.1784 79.0451C49.4002 76.71 45.1164 71.2679 41.9085 62.2881C39.2186 69.0931 36.2 75.5875 28.6186 78.534C32.4143 80.5384 34.5462 83.8457 36.7878 87.0628C39.0094 90.2398 40.444 93.8077 41.8088 97.4357C43.7117 89.3779 47.5671 82.9637 55.1784 79.0451Z" fill="#0A76D9"/>
</g>
</g>
<g clip-path="url(#clip1_469_82)">
<mask id="mask1_469_82" style="mask-type:luminance" maskUnits="userSpaceOnUse" x="93" y="6" width="37" height="47">
<path d="M130 6H93V53H130V6Z" fill="white"/>
</mask>
<g mask="url(#mask1_469_82)">
<path d="M111.479 52.9446C111.124 50.2223 110.951 47.4584 110.373 44.7845C109.483 40.6768 107.654 36.9085 104.67 33.9229C102.626 31.8656 99.781 31.0413 96.9852 30.3416C95.8028 30.0507 94.5996 29.8637 93 29.552C94.1754 29.2056 94.9821 28.8939 95.8237 28.7346C103.898 27.2452 107.863 23.1929 110.06 15.3584C110.916 12.3244 111.688 9.24186 111.597 6C112.314 7.70405 112.404 9.49123 112.703 11.2507C113.614 16.5153 114.957 21.6205 119.283 25.2987C121.237 26.9612 123.574 27.744 126.098 28.0903C127.406 28.2705 128.692 28.5822 129.993 28.8385C129.826 29.2957 129.43 29.2957 129.068 29.3788C126.411 29.9814 123.935 31.0482 121.445 32.1288C118.81 33.2718 117.453 35.5716 116.021 37.7744C113.649 41.4111 112.585 45.4703 112.348 49.7859C112.286 50.8665 112.022 51.9402 111.855 53.0139C111.73 52.9931 111.597 52.9723 111.472 52.9584M121.049 29.5312C117.015 27.9172 114.025 24.1558 111.785 17.9492C109.907 22.6526 107.8 27.1413 102.507 29.1779C105.157 30.5633 106.645 32.8492 108.21 35.0728C109.761 37.2687 110.763 39.7347 111.716 42.2423C113.044 36.673 115.736 32.2396 121.049 29.5312Z" fill="#0A76D9"/>
</g>
</g>
<defs>
<clipPath id="clip0_469_82">
<rect width="53" height="68" fill="white" transform="translate(15 45)"/>
</clipPath>
<clipPath id="clip1_469_82">
<rect width="37" height="47" fill="white" transform="translate(93 6)"/>
</clipPath>
</defs>
</svg>
